Titelletters.sfdir
StartChar: hyphen
Encoding: 45 45 0
Width: 1352
GlyphClass: 1
Flags: W
LayerCount: 2
Fore
SplineSet
310.173828125 1285.27734375 m 1,0,1
 359.952148438 1286.09570312 359.952148438 1286.09570312 487.043945312 1288.96386719 c 128,-1,2
 614.134765625 1291.83203125 614.134765625 1291.83203125 681.846679688 1292.74511719 c 128,-1,3
 749.557617188 1293.65722656 749.557617188 1293.65722656 852.689453125 1292.1796875 c 128,-1,4
 955.8203125 1290.70117188 955.8203125 1290.70117188 1041.34179688 1285.27734375 c 2,5,-1
 1126.40820312 1281.29101562 l 1,6,-1
 1199.80273438 1270.609375 l 1,7,-1
 1259.4375 1257.77539062 l 1,8,-1
 1302.43945312 1234.20117188 l 1,9,-1
 1328.04296875 1201.07226562 l 1,10,-1
 1341.07226562 1166.55859375 l 1,11,-1
 1352 1122.26757812 l 1,12,-1
 1350.42578125 1081.69140625 l 1,13,-1
 1346.33007812 1029.3828125 l 1,14,-1
 1332.80273438 976.033203125 l 1,15,-1
 1309.375 943.228515625 l 1,16,-1
 1271 907.50390625 l 1,17,-1
 1219.296875 885.896484375 l 1,18,-1
 1145.81445312 877.162109375 l 1,19,-1
 1073.03710938 876.458984375 l 1,20,21
 587.192382812 890.02734375 587.192382812 890.02734375 278.478515625 876.458984375 c 1,22,-1
 205.701171875 877.162109375 l 1,23,-1
 132.21875 885.896484375 l 1,24,-1
 80.515625 907.50390625 l 1,25,-1
 42.140625 943.228515625 l 1,26,-1
 18.71484375 976.033203125 l 1,27,-1
 5.1875 1029.3828125 l 1,28,-1
 1.08984375 1081.69140625 l 1,29,-1
 -0.482421875 1122.26757812 l 1,30,-1
 10.443359375 1166.55859375 l 1,31,-1
 23.47265625 1201.07226562 l 1,32,-1
 49.076171875 1234.20117188 l 1,33,-1
 92.078125 1257.77539062 l 1,34,-1
 151.712890625 1270.609375 l 1,35,-1
 225.109375 1281.29101562 l 1,36,-1
 310.173828125 1285.27734375 l 1,0,1
EndSplineSet
EndChar
StartChar: A
Encoding: 65 65 4
Width: 1635
GlyphClass: 1
Flags: W
LayerCount: 2
Fore
SplineSet
878 1497 m 1,0,-1
 836 1397 l 1,1,-1
 803 1303 l 1,2,-1
 775 1210 l 1,3,-1
 743 1113 l 1,4,-1
 721 1024 l 1,5,-1
 700 940 l 1,6,-1
 679 852 l 1,7,-1
 669 794 l 1,8,-1
 672 769 l 1,9,-1
 694 757 l 1,10,-1
 750 756 l 1,11,-1
 1082 756 l 1,12,-1
 1070 803 l 1,13,-1
 878 1497 l 1,0,-1
578 1667 m 1,14,-1
 604 1717 l 1,15,-1
 625 1762 l 1,16,-1
 655 1813 l 1,17,-1
 701 1865 l 1,18,-1
 739 1899 l 1,19,-1
 790 1924 l 1,20,-1
 836 1942 l 1,21,-1
 896 1953 l 1,22,-1
 959 1942 l 1,23,-1
 1014 1925 l 1,24,-1
 1058 1899 l 1,25,-1
 1102 1862 l 1,26,-1
 1132 1819 l 1,27,-1
 1156 1767 l 1,28,-1
 1185 1713 l 1,29,-1
 1202 1665 l 1,30,-1
 1226 1601 l 1,31,-1
 1246 1553 l 1,32,-1
 1261 1504 l 1,33,-1
 1278 1440 l 1,34,-1
 1304 1365 l 1,35,-1
 1329 1279 l 1,36,-1
 1360 1175 l 1,37,-1
 1392 1063 l 1,38,-1
 1420 980 l 1,39,-1
 1448 872 l 1,40,-1
 1472 764 l 1,41,-1
 1494 664 l 1,42,-1
 1512 587 l 1,43,-1
 1525 511 l 1,44,-1
 1539 448 l 1,45,-1
 1549 387 l 1,46,-1
 1558 285 l 1,47,-1
 1555 215 l 1,48,-1
 1537 167 l 1,49,-1
 1508 133 l 1,50,-1
 1476 113 l 1,51,-1
 1438 99 l 1,52,-1
 1402 91 l 1,53,-1
 1319 91 l 1,54,-1
 1268 105 l 1,55,-1
 1252 116 l 1,56,-1
 1237 127 l 1,57,-1
 1210 157 l 1,58,-1
 1186 210 l 1,59,-1
 1171 269 l 1,60,-1
 1158 332 l 1,61,-1
 1149 387 l 1,62,-1
 1142 432 l 1,63,-1
 615 431 l 1,64,-1
 609 382 l 1,65,-1
 593 326 l 1,66,-1
 581 273 l 1,67,-1
 565 208 l 1,68,-1
 548 168 l 1,69,-1
 521 133 l 1,70,-1
 480 100 l 1,71,-1
 429 88 l 1,72,-1
 374 81 l 1,73,-1
 321 82 l 1,74,-1
 272 89 l 1,75,-1
 237 111 l 1,76,-1
 204 151 l 1,77,-1
 191 197 l 1,78,-1
 188 268 l 1,79,-1
 196 313 l 1,80,-1
 207 377 l 1,81,-1
 214 424 l 1,82,-1
 179 430 l 1,83,-1
 142 446 l 1,84,-1
 109 469 l 1,85,-1
 88 499 l 1,86,-1
 83 547 l 1,87,-1
 82 592 l 1,88,-1
 92 636 l 1,89,-1
 110 677 l 1,90,-1
 141 714 l 1,91,-1
 183 736 l 1,92,-1
 222 746 l 1,93,-1
 291 751 l 1,94,-1
 452 1308 l 1,95,-1
 578 1667 l 1,14,-1
EndSplineSet
Validated: 1
EndChar
StartChar: C
Encoding: 67 67 8
Width: 1493
GlyphClass: 1
Flags: W
LayerCount: 2
Fore
SplineSet
760 1953 m 1,0,-1
 793 1952 l 1,1,-1
 819 1952 l 1,2,-1
 851 1951 l 1,3,-1
 879 1951 l 1,4,-1
 909 1949 l 1,5,-1
 942 1942 l 1,6,-1
 979 1934 l 1,7,-1
 1015 1925 l 1,8,-1
 1047 1907 l 1,9,-1
 1081 1895 l 1,10,-1
 1111 1874 l 1,11,-1
 1143 1856 l 1,12,-1
 1172 1833 l 1,13,-1
 1198 1809 l 1,14,-1
 1221 1785 l 1,15,-1
 1250 1760 l 1,16,-1
 1282 1717 l 1,17,-1
 1308 1675 l 1,18,-1
 1332 1636 l 1,19,-1
 1353 1601 l 1,20,-1
 1364 1569 l 1,21,-1
 1379 1528 l 1,22,-1
 1381 1495 l 1,23,-1
 1377 1454 l 1,24,-1
 1366 1425 l 1,25,-1
 1350 1394 l 1,26,-1
 1323 1370 l 1,27,-1
 1297 1350 l 1,28,-1
 1262 1333 l 1,29,-1
 1224 1321 l 1,30,-1
 1185 1320 l 1,31,-1
 1155 1325 l 1,32,-1
 1107 1337 l 1,33,-1
 1064 1352 l 1,34,-1
 1038 1382 l 1,35,-1
 1009 1420 l 1,36,-1
 994 1465 l 1,37,-1
 978 1504 l 1,38,-1
 949 1549 l 1,39,-1
 920 1578 l 1,40,-1
 879 1599 l 1,41,-1
 849 1611 l 1,42,-1
 810 1618 l 1,43,-1
 763 1613 l 1,44,-1
 712 1601 l 1,45,-1
 663 1579 l 1,46,-1
 616 1550 l 1,47,-1
 574 1497 l 1,48,-1
 547 1450 l 1,49,-1
 531 1407 l 1,50,-1
 515 1364 l 1,51,-1
 504 1319 l 1,52,-1
 497 1276 l 1,53,-1
 493 1230 l 1,54,-1
 486 1186 l 1,55,-1
 484 1124 l 1,56,-1
 481 1054 l 1,57,-1
 482 963 l 1,58,-1
 489 877 l 1,59,-1
 496 802 l 1,60,-1
 512 739 l 1,61,-1
 529 684 l 1,62,-1
 545 637 l 1,63,-1
 567 600 l 1,64,-1
 591 559 l 1,65,-1
 615 527 l 1,66,-1
 641 503 l 1,67,-1
 667 479 l 1,68,-1
 706 458 l 1,69,-1
 750 450 l 1,70,-1
 797 451 l 1,71,-1
 854 460 l 1,72,-1
 907 475 l 1,73,-1
 945 504 l 1,74,-1
 970 535 l 1,75,-1
 994 566 l 1,76,-1
 1015 602 l 1,77,-1
 1034 636 l 1,78,-1
 1054 669 l 1,79,-1
 1074 699 l 1,80,-1
 1110 741 l 1,81,-1
 1152 765 l 1,82,-1
 1196 779 l 1,83,-1
 1242 782 l 1,84,-1
 1293 776 l 1,85,-1
 1337 757 l 1,86,-1
 1374 735 l 1,87,-1
 1396 709 l 1,88,-1
 1415 666 l 1,89,-1
 1422 625 l 1,90,-1
 1417 570 l 1,91,-1
 1401 523 l 1,92,-1
 1383 472 l 1,93,-1
 1357 423 l 1,94,-1
 1329 377 l 1,95,-1
 1301 333 l 1,96,-1
 1268 285 l 1,97,-1
 1230 241 l 1,98,-1
 1187 207 l 1,99,-1
 1150 175 l 1,100,-1
 1108 151 l 1,101,-1
 1055 127 l 1,102,-1
 1007 106 l 1,103,-1
 944 90 l 1,104,-1
 884 85 l 1,105,-1
 801 81 l 1,106,-1
 728 87 l 1,107,-1
 672 93 l 1,108,-1
 610 108 l 1,109,-1
 557 127 l 1,110,-1
 504 145 l 1,111,-1
 454 177 l 1,112,-1
 406 211 l 1,113,-1
 361 246 l 1,114,-1
 315 289 l 1,115,-1
 277 329 l 1,116,-1
 250 367 l 1,117,-1
 224 407 l 1,118,-1
 200 448 l 1,119,-1
 176 494 l 1,120,-1
 157 539 l 1,121,-1
 140 594 l 1,122,-1
 127 643 l 1,123,-1
 109 689 l 1,124,-1
 100 750 l 1,125,-1
 91 820 l 1,126,-1
 86 886 l 1,127,-1
 82 952 l 1,128,-1
 82 1031 l 1,129,-1
 88 1102 l 1,130,-1
 95 1188 l 1,131,-1
 105 1256 l 1,132,-1
 115 1325 l 1,133,-1
 123 1375 l 1,134,-1
 138 1424 l 1,135,-1
 158 1481 l 1,136,-1
 181 1535 l 1,137,-1
 207 1586 l 1,138,-1
 235 1635 l 1,139,-1
 265 1675 l 1,140,-1
 291 1706 l 1,141,-1
 332 1755 l 1,142,-1
 376 1796 l 1,143,-1
 428 1838 l 1,144,-1
 481 1876 l 1,145,-1
 540 1908 l 1,146,-1
 598 1933 l 1,147,-1
 653 1942 l 1,148,-1
 699 1945 l 1,149,-1
 760 1953 l 1,0,-1
EndSplineSet
Validated: 1
EndChar
StartChar: D
Encoding: 68 68 14
Width: 1735
GlyphClass: 1
Flags: W
LayerCount: 2
Fore
SplineSet
241 1953 m 1,0,-1
 938 1953 l 1,1,-1
 1053 1936 l 1,2,-1
 1132 1914 l 1,3,-1
 1217 1887 l 1,4,-1
 1295 1850 l 1,5,-1
 1343 1823 l 1,6,-1
 1398 1781 l 1,7,-1
 1446 1733 l 1,8,-1
 1496 1671 l 1,9,-1
 1568 1548 l 1,10,-1
 1600 1469 l 1,11,-1
 1618 1402 l 1,12,-1
 1637 1292 l 1,13,-1
 1653 1184 l 1,14,-1
 1641 910 l 1,15,-1
 1588 676 l 1,16,-1
 1514 486 l 1,17,-1
 1426 351 l 1,18,-1
 1364 291 l 1,19,-1
 1335 263 l 1,20,-1
 1305 235 l 1,21,-1
 1233 187 l 1,22,-1
 1161 150 l 1,23,-1
 1074 119 l 1,24,-1
 987 98 l 1,25,-1
 829 81 l 1,26,-1
 730 88 l 1,27,-1
 651 99 l 1,28,-1
 567 117 l 1,29,-1
 502 142 l 1,30,-1
 434 193 l 1,31,-1
 395 242 l 1,32,-1
 361 316 l 1,33,-1
 339 396 l 1,34,-1
 328 528 l 1,35,-1
 331 1387 l 1,36,-1
 330 1584 l 1,37,-1
 234 1593 l 1,38,-1
 154 1625 l 1,39,-1
 112 1663 l 1,40,-1
 89 1706 l 1,41,-1
 81 1763 l 1,42,-1
 95 1829 l 1,43,-1
 123 1885 l 1,44,-1
 163 1927 l 1,45,-1
 241 1953 l 1,0,-1
709 1600 m 1,46,-1
 712 1300 l 1,47,-1
 714 543 l 1,48,-1
 729 490 l 1,49,-1
 761 446 l 1,50,-1
 811 432 l 1,51,-1
 877 432 l 1,52,-1
 950 445 l 1,53,-1
 994 460 l 1,54,-1
 1042 482 l 1,55,-1
 1092 517 l 1,56,-1
 1133 564 l 1,57,-1
 1169 628 l 1,58,-1
 1196 687 l 1,59,-1
 1216 746 l 1,60,-1
 1230 815 l 1,61,-1
 1246 881 l 1,62,-1
 1252 950 l 1,63,-1
 1266 1028 l 1,64,-1
 1266 1091 l 1,65,-1
 1258 1168 l 1,66,-1
 1251 1230 l 1,67,-1
 1233 1320 l 1,68,-1
 1197 1410 l 1,69,-1
 1158 1471 l 1,70,-1
 1110 1520 l 1,71,-1
 1073 1552 l 1,72,-1
 1018 1581 l 1,73,-1
 942 1600 l 1,74,-1
 868 1616 l 1,75,-1
 811 1620 l 1,76,-1
 755 1616 l 1,77,-1
 709 1600 l 1,46,-1
EndSplineSet
Validated: 1
EndChar
StartChar: E
Encoding: 69 69 16
Width: 1558
GlyphClass: 1
Flags: W
LayerCount: 2
Fore
SplineSet
255 1953 m 1,0,-1
 756 1953 l 1,1,-1
 1252 1953 l 1,2,-1
 1288 1953 l 1,3,-1
 1322 1952 l 1,4,-1
 1346 1946 l 1,5,-1
 1370 1934 l 1,6,-1
 1387 1919 l 1,7,-1
 1406 1899 l 1,8,-1
 1421 1873 l 1,9,-1
 1431 1841 l 1,10,-1
 1437 1785 l 1,11,-1
 1431 1728 l 1,12,-1
 1423 1695 l 1,13,-1
 1404 1668 l 1,14,-1
 1385 1646 l 1,15,-1
 1354 1626 l 1,16,-1
 1318 1616 l 1,17,-1
 1279 1610 l 1,18,-1
 1235 1605 l 1,19,-1
 1180 1604 l 1,20,-1
 706 1604 l 1,21,-1
 706 1222 l 1,22,-1
 1227 1222 l 1,23,-1
 1262 1221 l 1,24,-1
 1301 1217 l 1,25,-1
 1336 1210 l 1,26,-1
 1359 1200 l 1,27,-1
 1384 1183 l 1,28,-1
 1400 1160 l 1,29,-1
 1414 1135 l 1,30,-1
 1423 1101 l 1,31,-1
 1423 1043 l 1,32,-1
 1419 992 l 1,33,-1
 1408 961 l 1,34,-1
 1388 939 l 1,35,-1
 1366 918 l 1,36,-1
 1347 902 l 1,37,-1
 1319 886 l 1,38,-1
 1292 874 l 1,39,-1
 1260 866 l 1,40,-1
 1228 862 l 1,41,-1
 1173 862 l 1,42,-1
 706 862 l 1,43,-1
 706 532 l 1,44,-1
 709 505 l 1,45,-1
 722 468 l 1,46,-1
 738 453 l 1,47,-1
 753 437 l 1,48,-1
 772 425 l 1,49,-1
 807 421 l 1,50,-1
 849 426 l 1,51,-1
 893 434 l 1,52,-1
 928 441 l 1,53,-1
 964 451 l 1,54,-1
 1003 460 l 1,55,-1
 1044 475 l 1,56,-1
 1078 487 l 1,57,-1
 1121 503 l 1,58,-1
 1158 518 l 1,59,-1
 1197 531 l 1,60,-1
 1248 544 l 1,61,-1
 1290 550 l 1,62,-1
 1330 548 l 1,63,-1
 1375 537 l 1,64,-1
 1403 524 l 1,65,-1
 1430 503 l 1,66,-1
 1450 480 l 1,67,-1
 1470 445 l 1,68,-1
 1481 412 l 1,69,-1
 1484 365 l 1,70,-1
 1480 313 l 1,71,-1
 1465 282 l 1,72,-1
 1439 257 l 1,73,-1
 1401 231 l 1,74,-1
 1367 207 l 1,75,-1
 1324 186 l 1,76,-1
 1278 167 l 1,77,-1
 1230 147 l 1,78,-1
 1177 129 l 1,79,-1
 1128 114 l 1,80,-1
 1085 102 l 1,81,-1
 1025 96 l 1,82,-1
 974 87 l 1,83,-1
 921 84 l 1,84,-1
 881 82 l 1,85,-1
 825 81 l 1,86,-1
 752 85 l 1,87,-1
 703 88 l 1,88,-1
 654 95 l 1,89,-1
 604 103 l 1,90,-1
 555 115 l 1,91,-1
 511 128 l 1,92,-1
 461 152 l 1,93,-1
 439 168 l 1,94,-1
 419 186 l 1,95,-1
 398 204 l 1,96,-1
 378 229 l 1,97,-1
 356 259 l 1,98,-1
 341 288 l 1,99,-1
 332 337 l 1,100,-1
 329 364 l 1,101,-1
 326 393 l 1,102,-1
 321 444 l 1,103,-1
 317 487 l 1,104,-1
 318 741 l 1,105,-1
 318 865 l 1,106,-1
 270 870 l 1,107,-1
 239 874 l 1,108,-1
 203 890 l 1,109,-1
 178 909 l 1,110,-1
 157 930 l 1,111,-1
 137 965 l 1,112,-1
 130 1001 l 1,113,-1
 127 1056 l 1,114,-1
 129 1081 l 1,115,-1
 134 1103 l 1,116,-1
 144 1121 l 1,117,-1
 152 1143 l 1,118,-1
 167 1162 l 1,119,-1
 177 1178 l 1,120,-1
 195 1191 l 1,121,-1
 214 1203 l 1,122,-1
 228 1210 l 1,123,-1
 247 1219 l 1,124,-1
 274 1225 l 1,125,-1
 305 1228 l 1,126,-1
 319 1236 l 1,127,-1
 319 1531 l 1,128,-1
 315 1556 l 1,129,-1
 310 1578 l 1,130,-1
 291 1589 l 1,131,-1
 258 1593 l 1,132,-1
 208 1601 l 1,133,-1
 176 1613 l 1,134,-1
 143 1630 l 1,135,-1
 122 1649 l 1,136,-1
 96 1685 l 1,137,-1
 84 1730 l 1,138,-1
 82 1770 l 1,139,-1
 87 1826 l 1,140,-1
 101 1862 l 1,141,-1
 120 1898 l 1,142,-1
 144 1918 l 1,143,-1
 170 1935 l 1,144,-1
 201 1948 l 1,145,-1
 255 1953 l 1,0,-1
EndSplineSet
Validated: 1
EndChar
StartChar: G
Encoding: 71 71 22
Width: 1531
GlyphClass: 1
Flags: W
LayerCount: 2
Fore
SplineSet
684 1946 m 1,0,-1
 737 1953 l 1,1,-1
 798 1952 l 1,2,-1
 844 1948 l 1,3,-1
 884 1943 l 1,4,-1
 928 1931 l 1,5,-1
 961 1922 l 1,6,-1
 988 1910 l 1,7,-1
 1022 1892 l 1,8,-1
 1056 1876 l 1,9,-1
 1087 1849 l 1,10,-1
 1136 1814 l 1,11,-1
 1165 1784 l 1,12,-1
 1189 1755 l 1,13,-1
 1212 1724 l 1,14,-1
 1233 1688 l 1,15,-1
 1249 1658 l 1,16,-1
 1273 1606 l 1,17,-1
 1281 1554 l 1,18,-1
 1285 1509 l 1,19,-1
 1279 1453 l 1,20,-1
 1259 1413 l 1,21,-1
 1222 1376 l 1,22,-1
 1184 1348 l 1,23,-1
 1139 1338 l 1,24,-1
 1066 1340 l 1,25,-1
 1021 1363 l 1,26,-1
 990 1394 l 1,27,-1
 972 1427 l 1,28,-1
 949 1473 l 1,29,-1
 927 1522 l 1,30,-1
 911 1549 l 1,31,-1
 891 1579 l 1,32,-1
 863 1603 l 1,33,-1
 833 1616 l 1,34,-1
 795 1623 l 1,35,-1
 753 1627 l 1,36,-1
 721 1623 l 1,37,-1
 680 1610 l 1,38,-1
 644 1594 l 1,39,-1
 608 1572 l 1,40,-1
 573 1529 l 1,41,-1
 544 1484 l 1,42,-1
 522 1439 l 1,43,-1
 501 1386 l 1,44,-1
 487 1329 l 1,45,-1
 475 1280 l 1,46,-1
 466 1221 l 1,47,-1
 461 1159 l 1,48,-1
 460 1084 l 1,49,-1
 462 1004 l 1,50,-1
 463 929 l 1,51,-1
 473 856 l 1,52,-1
 486 792 l 1,53,-1
 497 725 l 1,54,-1
 514 675 l 1,55,-1
 529 628 l 1,56,-1
 553 588 l 1,57,-1
 574 555 l 1,58,-1
 601 527 l 1,59,-1
 629 499 l 1,60,-1
 661 477 l 1,61,-1
 692 457 l 1,62,-1
 726 445 l 1,63,-1
 764 438 l 1,64,-1
 800 434 l 1,65,-1
 832 434 l 1,66,-1
 863 434 l 1,67,-1
 901 437 l 1,68,-1
 927 446 l 1,69,-1
 942 464 l 1,70,-1
 942 798 l 1,71,-1
 884 798 l 1,72,-1
 839 799 l 1,73,-1
 797 809 l 1,74,-1
 754 826 l 1,75,-1
 720 843 l 1,76,-1
 691 862 l 1,77,-1
 673 893 l 1,78,-1
 663 927 l 1,79,-1
 662 965 l 1,80,-1
 669 1000 l 1,81,-1
 687 1033 l 1,82,-1
 716 1063 l 1,83,-1
 745 1079 l 1,84,-1
 770 1096 l 1,85,-1
 804 1110 l 1,86,-1
 845 1121 l 1,87,-1
 886 1128 l 1,88,-1
 937 1134 l 1,89,-1
 988 1133 l 1,90,-1
 1032 1133 l 1,91,-1
 1085 1133 l 1,92,-1
 1128 1130 l 1,93,-1
 1191 1124 l 1,94,-1
 1243 1116 l 1,95,-1
 1295 1103 l 1,96,-1
 1350 1083 l 1,97,-1
 1388 1063 l 1,98,-1
 1417 1038 l 1,99,-1
 1439 1007 l 1,100,-1
 1450 983 l 1,101,-1
 1459 950 l 1,102,-1
 1456 918 l 1,103,-1
 1448 896 l 1,104,-1
 1425 872 l 1,105,-1
 1409 852 l 1,106,-1
 1385 835 l 1,107,-1
 1356 827 l 1,108,-1
 1326 816 l 1,109,-1
 1294 806 l 1,110,-1
 1293 296 l 1,111,-1
 1287 258 l 1,112,-1
 1277 225 l 1,113,-1
 1262 193 l 1,114,-1
 1232 166 l 1,115,-1
 1191 139 l 1,116,-1
 1155 121 l 1,117,-1
 1117 107 l 1,118,-1
 1071 93 l 1,119,-1
 1032 87 l 1,120,-1
 925 81 l 1,121,-1
 834 87 l 1,122,-1
 771 92 l 1,123,-1
 705 101 l 1,124,-1
 649 112 l 1,125,-1
 596 125 l 1,126,-1
 534 147 l 1,127,-1
 484 174 l 1,128,-1
 438 199 l 1,129,-1
 393 231 l 1,130,-1
 352 265 l 1,131,-1
 307 306 l 1,132,-1
 272 351 l 1,133,-1
 241 394 l 1,134,-1
 215 437 l 1,135,-1
 190 486 l 1,136,-1
 172 535 l 1,137,-1
 155 577 l 1,138,-1
 142 611 l 1,139,-1
 124 677 l 1,140,-1
 111 743 l 1,141,-1
 105 792 l 1,142,-1
 94 843 l 1,143,-1
 94 890 l 1,144,-1
 90 937 l 1,145,-1
 82 989 l 1,146,-1
 82 1038 l 1,147,-1
 86 1095 l 1,148,-1
 93 1146 l 1,149,-1
 96 1195 l 1,150,-1
 105 1242 l 1,151,-1
 112 1292 l 1,152,-1
 117 1331 l 1,153,-1
 130 1376 l 1,154,-1
 142 1424 l 1,155,-1
 161 1469 l 1,156,-1
 178 1515 l 1,157,-1
 196 1556 l 1,158,-1
 216 1584 l 1,159,-1
 234 1619 l 1,160,-1
 252 1656 l 1,161,-1
 277 1694 l 1,162,-1
 302 1726 l 1,163,-1
 335 1768 l 1,164,-1
 368 1804 l 1,165,-1
 417 1840 l 1,166,-1
 450 1864 l 1,167,-1
 478 1878 l 1,168,-1
 518 1896 l 1,169,-1
 561 1914 l 1,170,-1
 603 1927 l 1,171,-1
 641 1939 l 1,172,-1
 684 1946 l 1,0,-1
EndSplineSet
Validated: 1
EndChar
StartChar: I
Encoding: 73 73 26
Width: 509
GlyphClass: 1
Flags: W
LayerCount: 2
Fore
SplineSet
90 1759 m 1,0,-1
 95 1808 l 1,1,-1
 104 1838 l 1,2,-1
 115 1872 l 1,3,-1
 133 1897 l 1,4,-1
 159 1919 l 1,5,-1
 195 1937 l 1,6,-1
 226 1951 l 1,7,-1
 288 1953 l 1,8,-1
 350 1951 l 1,9,-1
 395 1940 l 1,10,-1
 423 1922 l 1,11,-1
 447 1900 l 1,12,-1
 471 1870 l 1,13,-1
 480 1832 l 1,14,-1
 485 1802 l 1,15,-1
 485 1543 l 1,16,-1
 484 1180 l 1,17,-1
 483 654 l 1,18,-1
 477 360 l 1,19,-1
 473 285 l 1,20,-1
 467 240 l 1,21,-1
 458 203 l 1,22,-1
 448 163 l 1,23,-1
 427 139 l 1,24,-1
 402 119 l 1,25,-1
 369 100 l 1,26,-1
 332 92 l 1,27,-1
 300 81 l 1,28,-1
 209 81 l 1,29,-1
 185 93 l 1,30,-1
 149 114 l 1,31,-1
 115 149 l 1,32,-1
 96 188 l 1,33,-1
 86 229 l 1,34,-1
 82 399 l 1,35,-1
 84 975 l 1,36,-1
 89 1279 l 1,37,-1
 90 1759 l 1,0,-1
EndSplineSet
Validated: 1
EndChar
StartChar: J
Encoding: 74 74 28
Width: 1060
GlyphClass: 1
Flags: W
LayerCount: 2
Fore
SplineSet
586 1635 m 1,0,-1
 590 1802 l 1,1,-1
 591 1830 l 1,2,-1
 596 1848 l 1,3,-1
 605 1868 l 1,4,-1
 616 1882 l 1,5,-1
 629 1896 l 1,6,-1
 647 1911 l 1,7,-1
 666 1924 l 1,8,-1
 683 1936 l 1,9,-1
 701 1944 l 1,10,-1
 723 1952 l 1,11,-1
 740 1953 l 1,12,-1
 862 1953 l 1,13,-1
 881 1946 l 1,14,-1
 904 1937 l 1,15,-1
 923 1921 l 1,16,-1
 941 1899 l 1,17,-1
 956 1878 l 1,18,-1
 968 1854 l 1,19,-1
 977 1826 l 1,20,-1
 977 1668 l 1,21,-1
 987 1502 l 1,22,-1
 995 1283 l 1,23,-1
 1004 803 l 1,24,-1
 1010 295 l 1,25,-1
 1005 276 l 1,26,-1
 998 257 l 1,27,-1
 989 236 l 1,28,-1
 978 217 l 1,29,-1
 964 201 l 1,30,-1
 950 185 l 1,31,-1
 934 169 l 1,32,-1
 917 155 l 1,33,-1
 902 142 l 1,34,-1
 882 133 l 1,35,-1
 863 121 l 1,36,-1
 840 112 l 1,37,-1
 818 107 l 1,38,-1
 793 99 l 1,39,-1
 763 91 l 1,40,-1
 726 86 l 1,41,-1
 660 81 l 1,42,-1
 595 84 l 1,43,-1
 548 86 l 1,44,-1
 490 85 l 1,45,-1
 456 90 l 1,46,-1
 420 95 l 1,47,-1
 384 99 l 1,48,-1
 347 111 l 1,49,-1
 311 120 l 1,50,-1
 283 129 l 1,51,-1
 255 136 l 1,52,-1
 227 146 l 1,53,-1
 203 157 l 1,54,-1
 182 170 l 1,55,-1
 156 186 l 1,56,-1
 129 208 l 1,57,-1
 104 233 l 1,58,-1
 88 264 l 1,59,-1
 81 325 l 1,60,-1
 86 389 l 1,61,-1
 92 413 l 1,62,-1
 104 437 l 1,63,-1
 123 460 l 1,64,-1
 148 482 l 1,65,-1
 168 493 l 1,66,-1
 192 501 l 1,67,-1
 235 503 l 1,68,-1
 270 498 l 1,69,-1
 302 488 l 1,70,-1
 333 477 l 1,71,-1
 360 466 l 1,72,-1
 395 452 l 1,73,-1
 439 439 l 1,74,-1
 484 431 l 1,75,-1
 533 428 l 1,76,-1
 564 431 l 1,77,-1
 587 437 l 1,78,-1
 603 450 l 1,79,-1
 612 468 l 1,80,-1
 605 848 l 1,81,-1
 594 1080 l 1,82,-1
 594 1374 l 1,83,-1
 586 1635 l 1,0,-1
EndSplineSet
Validated: 1
EndChar
StartChar: M
Encoding: 77 77 34
Width: 2175
GlyphClass: 1
Flags: W
LayerCount: 2
Fore
SplineSet
522 1874 m 1,0,-1
 558 1905 l 1,1,-1
 600 1926 l 1,2,-1
 655 1933 l 1,3,-1
 714 1928 l 1,4,-1
 757 1908 l 1,5,-1
 800 1873 l 1,6,-1
 832 1832 l 1,7,-1
 856 1783 l 1,8,-1
 872 1733 l 1,9,-1
 986 1346 l 1,10,-1
 1098 931 l 1,11,-1
 1182 1267 l 1,12,-1
 1249 1551 l 1,13,-1
 1286 1712 l 1,14,-1
 1304 1780 l 1,15,-1
 1330 1852 l 1,16,-1
 1357 1894 l 1,17,-1
 1384 1919 l 1,18,-1
 1426 1941 l 1,19,-1
 1483 1953 l 1,20,-1
 1559 1950 l 1,21,-1
 1605 1937 l 1,22,-1
 1645 1909 l 1,23,-1
 1676 1873 l 1,24,-1
 1690 1843 l 1,25,-1
 1709 1800 l 1,26,-1
 1795 1521 l 1,27,-1
 1950 960 l 1,28,-1
 2053 440 l 1,29,-1
 2067 356 l 1,30,-1
 2072 282 l 1,31,-1
 2072 221 l 1,32,-1
 2058 174 l 1,33,-1
 2031 142 l 1,34,-1
 2000 122 l 1,35,-1
 1959 102 l 1,36,-1
 1919 95 l 1,37,-1
 1867 88 l 1,38,-1
 1812 90 l 1,39,-1
 1775 106 l 1,40,-1
 1732 136 l 1,41,-1
 1700 182 l 1,42,-1
 1676 252 l 1,43,-1
 1660 323 l 1,44,-1
 1621 532 l 1,45,-1
 1513 1060 l 1,46,-1
 1359 429 l 1,47,-1
 1345 375 l 1,48,-1
 1329 307 l 1,49,-1
 1318 269 l 1,50,-1
 1302 228 l 1,51,-1
 1286 196 l 1,52,-1
 1258 151 l 1,53,-1
 1223 121 l 1,54,-1
 1188 105 l 1,55,-1
 1157 95 l 1,56,-1
 1114 90 l 1,57,-1
 1055 92 l 1,58,-1
 1015 102 l 1,59,-1
 981 120 l 1,60,-1
 944 157 l 1,61,-1
 908 208 l 1,62,-1
 876 295 l 1,63,-1
 842 408 l 1,64,-1
 747 745 l 1,65,-1
 654 1098 l 1,66,-1
 542 609 l 1,67,-1
 466 257 l 1,68,-1
 449 206 l 1,69,-1
 429 161 l 1,70,-1
 403 124 l 1,71,-1
 372 97 l 1,72,-1
 333 85 l 1,73,-1
 277 81 l 1,74,-1
 211 83 l 1,75,-1
 171 97 l 1,76,-1
 128 121 l 1,77,-1
 97 161 l 1,78,-1
 81 221 l 1,79,-1
 85 315 l 1,80,-1
 110 448 l 1,81,-1
 227 950 l 1,82,-1
 403 1556 l 1,83,-1
 424 1632 l 1,84,-1
 458 1735 l 1,85,-1
 489 1820 l 1,86,-1
 522 1874 l 1,0,-1
EndSplineSet
Validated: 1
EndChar
StartChar: O
Encoding: 79 79 38
Width: 1543
GlyphClass: 1
Flags: W
LayerCount: 2
Fore
SplineSet
587 1534 m 1,0,-1
 573 1515 l 1,1,-1
 559 1494 l 1,2,-1
 543 1469 l 1,3,-1
 531 1444 l 1,4,-1
 514 1410 l 1,5,-1
 501 1369 l 1,6,-1
 489 1329 l 1,7,-1
 480 1293 l 1,8,-1
 475 1252 l 1,9,-1
 470 1202 l 1,10,-1
 465 1165 l 1,11,-1
 460 1092 l 1,12,-1
 460 969 l 1,13,-1
 463 882 l 1,14,-1
 469 823 l 1,15,-1
 474 777 l 1,16,-1
 484 722 l 1,17,-1
 496 674 l 1,18,-1
 507 639 l 1,19,-1
 522 606 l 1,20,-1
 540 565 l 1,21,-1
 563 536 l 1,22,-1
 582 514 l 1,23,-1
 605 491 l 1,24,-1
 626 477 l 1,25,-1
 646 466 l 1,26,-1
 667 456 l 1,27,-1
 689 446 l 1,28,-1
 724 440 l 1,29,-1
 765 437 l 1,30,-1
 816 441 l 1,31,-1
 859 454 l 1,32,-1
 895 470 l 1,33,-1
 919 486 l 1,34,-1
 939 501 l 1,35,-1
 957 522 l 1,36,-1
 970 540 l 1,37,-1
 983 561 l 1,38,-1
 997 581 l 1,39,-1
 1010 607 l 1,40,-1
 1024 641 l 1,41,-1
 1035 677 l 1,42,-1
 1048 725 l 1,43,-1
 1056 767 l 1,44,-1
 1064 804 l 1,45,-1
 1067 844 l 1,46,-1
 1070 887 l 1,47,-1
 1073 933 l 1,48,-1
 1076 1025 l 1,49,-1
 1072 1114 l 1,50,-1
 1067 1167 l 1,51,-1
 1060 1217 l 1,52,-1
 1054 1256 l 1,53,-1
 1047 1289 l 1,54,-1
 1039 1322 l 1,55,-1
 1030 1370 l 1,56,-1
 1016 1406 l 1,57,-1
 1000 1442 l 1,58,-1
 989 1472 l 1,59,-1
 973 1494 l 1,60,-1
 958 1518 l 1,61,-1
 941 1538 l 1,62,-1
 924 1557 l 1,63,-1
 906 1572 l 1,64,-1
 881 1586 l 1,65,-1
 858 1596 l 1,66,-1
 831 1602 l 1,67,-1
 798 1605 l 1,68,-1
 771 1607 l 1,69,-1
 743 1605 l 1,70,-1
 713 1602 l 1,71,-1
 683 1597 l 1,72,-1
 653 1586 l 1,73,-1
 630 1573 l 1,74,-1
 608 1553 l 1,75,-1
 587 1534 l 1,0,-1
376 1844 m 1,76,-1
 414 1868 l 1,77,-1
 464 1898 l 1,78,-1
 517 1920 l 1,79,-1
 582 1937 l 1,80,-1
 651 1945 l 1,81,-1
 718 1950 l 1,82,-1
 782 1953 l 1,83,-1
 842 1951 l 1,84,-1
 916 1946 l 1,85,-1
 978 1935 l 1,86,-1
 1030 1920 l 1,87,-1
 1086 1898 l 1,88,-1
 1127 1874 l 1,89,-1
 1165 1844 l 1,90,-1
 1204 1812 l 1,91,-1
 1236 1773 l 1,92,-1
 1272 1730 l 1,93,-1
 1299 1690 l 1,94,-1
 1335 1632 l 1,95,-1
 1363 1564 l 1,96,-1
 1383 1505 l 1,97,-1
 1401 1445 l 1,98,-1
 1420 1374 l 1,99,-1
 1435 1303 l 1,100,-1
 1452 1207 l 1,101,-1
 1464 1123 l 1,102,-1
 1470 1048 l 1,103,-1
 1469 949 l 1,104,-1
 1464 860 l 1,105,-1
 1457 786 l 1,106,-1
 1450 725 l 1,107,-1
 1437 661 l 1,108,-1
 1422 593 l 1,109,-1
 1399 525 l 1,110,-1
 1378 468 l 1,111,-1
 1352 409 l 1,112,-1
 1322 356 l 1,113,-1
 1292 313 l 1,114,-1
 1259 276 l 1,115,-1
 1230 247 l 1,116,-1
 1200 219 l 1,117,-1
 1159 186 l 1,118,-1
 1115 158 l 1,119,-1
 1071 137 l 1,120,-1
 1024 117 l 1,121,-1
 956 101 l 1,122,-1
 872 85 l 1,123,-1
 766 81 l 1,124,-1
 677 88 l 1,125,-1
 607 96 l 1,126,-1
 549 110 l 1,127,-1
 499 129 l 1,128,-1
 455 147 l 1,129,-1
 408 173 l 1,130,-1
 356 207 l 1,131,-1
 313 242 l 1,132,-1
 261 289 l 1,133,-1
 216 351 l 1,134,-1
 187 407 l 1,135,-1
 161 463 l 1,136,-1
 134 539 l 1,137,-1
 114 626 l 1,138,-1
 95 711 l 1,139,-1
 87 795 l 1,140,-1
 81 933 l 1,141,-1
 82 1130 l 1,142,-1
 92 1247 l 1,143,-1
 101 1323 l 1,144,-1
 111 1398 l 1,145,-1
 125 1468 l 1,146,-1
 147 1539 l 1,147,-1
 182 1612 l 1,148,-1
 202 1648 l 1,149,-1
 238 1700 l 1,150,-1
 270 1739 l 1,151,-1
 304 1774 l 1,152,-1
 336 1806 l 1,153,-1
 376 1844 l 1,76,-1
EndSplineSet
Validated: 1
EndChar
StartChar: U
Encoding: 85 85 44
Width: 1465
GlyphClass: 1
Flags: W
LayerCount: 2
Fore
SplineSet
184 1862 m 1,0,-1
 208 1896 l 1,1,-1
 245 1923 l 1,2,-1
 296 1946 l 1,3,-1
 370 1953 l 1,4,-1
 433 1946 l 1,5,-1
 482 1924 l 1,6,-1
 518 1893 l 1,7,-1
 543 1831 l 1,8,-1
 544 1737 l 1,9,-1
 531 1617 l 1,10,-1
 518 1499 l 1,11,-1
 484 1264 l 1,12,-1
 472 1017 l 1,13,-1
 477 738 l 1,14,-1
 484 692 l 1,15,-1
 495 647 l 1,16,-1
 512 599 l 1,17,-1
 535 552 l 1,18,-1
 561 526 l 1,19,-1
 597 504 l 1,20,-1
 632 489 l 1,21,-1
 668 472 l 1,22,-1
 728 461 l 1,23,-1
 792 463 l 1,24,-1
 828 473 l 1,25,-1
 860 497 l 1,26,-1
 887 525 l 1,27,-1
 914 565 l 1,28,-1
 936 615 l 1,29,-1
 952 686 l 1,30,-1
 967 817 l 1,31,-1
 974 995 l 1,32,-1
 976 1326 l 1,33,-1
 958 1656 l 1,34,-1
 958 1738 l 1,35,-1
 965 1814 l 1,36,-1
 982 1849 l 1,37,-1
 1005 1876 l 1,38,-1
 1042 1900 l 1,39,-1
 1094 1919 l 1,40,-1
 1152 1926 l 1,41,-1
 1202 1922 l 1,42,-1
 1251 1913 l 1,43,-1
 1288 1888 l 1,44,-1
 1318 1845 l 1,45,-1
 1344 1754 l 1,46,-1
 1356 1657 l 1,47,-1
 1377 1517 l 1,48,-1
 1390 1376 l 1,49,-1
 1396 1178 l 1,50,-1
 1393 900 l 1,51,-1
 1380 776 l 1,52,-1
 1366 698 l 1,53,-1
 1355 637 l 1,54,-1
 1344 586 l 1,55,-1
 1329 542 l 1,56,-1
 1311 488 l 1,57,-1
 1293 445 l 1,58,-1
 1270 399 l 1,59,-1
 1246 354 l 1,60,-1
 1222 319 l 1,61,-1
 1190 282 l 1,62,-1
 1155 240 l 1,63,-1
 1112 202 l 1,64,-1
 1059 164 l 1,65,-1
 1002 135 l 1,66,-1
 926 106 l 1,67,-1
 842 90 l 1,68,-1
 753 81 l 1,69,-1
 683 84 l 1,70,-1
 615 96 l 1,71,-1
 562 107 l 1,72,-1
 507 126 l 1,73,-1
 463 145 l 1,74,-1
 410 173 l 1,75,-1
 353 214 l 1,76,-1
 301 260 l 1,77,-1
 246 313 l 1,78,-1
 205 369 l 1,79,-1
 166 433 l 1,80,-1
 137 501 l 1,81,-1
 105 627 l 1,82,-1
 83 858 l 1,83,-1
 81 1037 l 1,84,-1
 83 1231 l 1,85,-1
 103 1469 l 1,86,-1
 127 1619 l 1,87,-1
 162 1805 l 1,88,-1
 184 1862 l 1,0,-1
EndSplineSet
Validated: 1
EndChar
StartChar: V
Encoding: 86 86 46
Width: 1411
GlyphClass: 1
Flags: W
LayerCount: 2
Fore
SplineSet
86 1696 m 1,0,-1
 81 1752 l 1,1,-1
 84 1799 l 1,2,-1
 103 1842 l 1,3,-1
 127 1882 l 1,4,-1
 164 1913 l 1,5,-1
 216 1935 l 1,6,-1
 274 1944 l 1,7,-1
 337 1934 l 1,8,-1
 383 1907 l 1,9,-1
 412 1871 l 1,10,-1
 428 1837 l 1,11,-1
 456 1765 l 1,12,-1
 547 1436 l 1,13,-1
 746 784 l 1,14,-1
 960 1725 l 1,15,-1
 976 1780 l 1,16,-1
 998 1833 l 1,17,-1
 1020 1874 l 1,18,-1
 1050 1914 l 1,19,-1
 1090 1939 l 1,20,-1
 1137 1953 l 1,21,-1
 1179 1953 l 1,22,-1
 1227 1950 l 1,23,-1
 1277 1931 l 1,24,-1
 1315 1900 l 1,25,-1
 1338 1856 l 1,26,-1
 1344 1808 l 1,27,-1
 1344 1766 l 1,28,-1
 1336 1716 l 1,29,-1
 1328 1666 l 1,30,-1
 1102 747 l 1,31,-1
 994 352 l 1,32,-1
 977 291 l 1,33,-1
 956 237 l 1,34,-1
 934 187 l 1,35,-1
 909 148 l 1,36,-1
 881 120 l 1,37,-1
 844 96 l 1,38,-1
 806 85 l 1,39,-1
 756 81 l 1,40,-1
 711 86 l 1,41,-1
 665 93 l 1,42,-1
 621 111 l 1,43,-1
 587 135 l 1,44,-1
 566 163 l 1,45,-1
 551 191 l 1,46,-1
 445 467 l 1,47,-1
 348 746 l 1,48,-1
 165 1392 l 1,49,-1
 86 1696 l 1,0,-1
EndSplineSet
Validated: 1
EndChar
StartChar: X
Encoding: 88 88 50
Width: 1519
GlyphClass: 1
Flags: W
LayerCount: 2
Fore
SplineSet
140 1709 m 1,0,-1
 129 1749 l 1,1,-1
 129 1794 l 1,2,-1
 141 1844 l 1,3,-1
 162 1882 l 1,4,-1
 193 1909 l 1,5,-1
 226 1930 l 1,6,-1
 262 1939 l 1,7,-1
 306 1949 l 1,8,-1
 347 1953 l 1,9,-1
 391 1944 l 1,10,-1
 428 1924 l 1,11,-1
 460 1893 l 1,12,-1
 500 1837 l 1,13,-1
 752 1443 l 1,14,-1
 994 1826 l 1,15,-1
 1018 1856 l 1,16,-1
 1044 1885 l 1,17,-1
 1073 1906 l 1,18,-1
 1109 1922 l 1,19,-1
 1150 1933 l 1,20,-1
 1205 1936 l 1,21,-1
 1257 1928 l 1,22,-1
 1296 1914 l 1,23,-1
 1330 1886 l 1,24,-1
 1354 1854 l 1,25,-1
 1365 1816 l 1,26,-1
 1363 1781 l 1,27,-1
 1355 1734 l 1,28,-1
 1336 1687 l 1,29,-1
 1301 1620 l 1,30,-1
 984 1080 l 1,31,-1
 1382 438 l 1,32,-1
 1415 384 l 1,33,-1
 1438 338 l 1,34,-1
 1447 304 l 1,35,-1
 1446 261 l 1,36,-1
 1435 212 l 1,37,-1
 1414 176 l 1,38,-1
 1382 148 l 1,39,-1
 1350 125 l 1,40,-1
 1307 109 l 1,41,-1
 1260 103 l 1,42,-1
 1205 105 l 1,43,-1
 1163 118 l 1,44,-1
 1122 146 l 1,45,-1
 1086 192 l 1,46,-1
 757 704 l 1,47,-1
 440 202 l 1,48,-1
 418 173 l 1,49,-1
 392 141 l 1,50,-1
 361 114 l 1,51,-1
 321 92 l 1,52,-1
 275 82 l 1,53,-1
 229 81 l 1,54,-1
 188 88 l 1,55,-1
 150 104 l 1,56,-1
 117 138 l 1,57,-1
 89 184 l 1,58,-1
 81 235 l 1,59,-1
 86 293 l 1,60,-1
 102 335 l 1,61,-1
 128 396 l 1,62,-1
 163 453 l 1,63,-1
 528 1068 l 1,64,-1
 160 1662 l 1,65,-1
 140 1709 l 1,0,-1
EndSplineSet
Validated: 1
EndChar
StartChar: b
Encoding: 98 98 7
Width: 1647
GlyphClass: 1
Flags: W
LayerCount: 2
Fore
SplineSet
683 869 m 1,0,-1
 684 477 l 1,1,-1
 992 477 l 1,2,-1
 1030 483 l 1,3,-1
 1056 502 l 1,4,-1
 1096 530 l 1,5,-1
 1118 566 l 1,6,-1
 1136 600 l 1,7,-1
 1146 639 l 1,8,-1
 1149 680 l 1,9,-1
 1147 722 l 1,10,-1
 1135 764 l 1,11,-1
 1113 804 l 1,12,-1
 1081 833 l 1,13,-1
 1047 848 l 1,14,-1
 1011 859 l 1,15,-1
 959 864 l 1,16,-1
 901 869 l 1,17,-1
 683 869 l 1,0,-1
673 1596 m 1,18,-1
 673 1203 l 1,19,-1
 981 1203 l 1,20,-1
 1019 1210 l 1,21,-1
 1045 1228 l 1,22,-1
 1085 1256 l 1,23,-1
 1107 1292 l 1,24,-1
 1125 1326 l 1,25,-1
 1135 1365 l 1,26,-1
 1138 1406 l 1,27,-1
 1136 1448 l 1,28,-1
 1124 1490 l 1,29,-1
 1102 1530 l 1,30,-1
 1070 1559 l 1,31,-1
 1036 1575 l 1,32,-1
 1000 1585 l 1,33,-1
 946 1593 l 1,34,-1
 890 1596 l 1,35,-1
 673 1596 l 1,18,-1
287 1591 m 1,36,-1
 266 1591 l 1,37,-1
 232 1595 l 1,38,-1
 179 1605 l 1,39,-1
 146 1622 l 1,40,-1
 117 1648 l 1,41,-1
 93 1683 l 1,42,-1
 82 1713 l 1,43,-1
 82 1782 l 1,44,-1
 87 1819 l 1,45,-1
 97 1852 l 1,46,-1
 117 1888 l 1,47,-1
 144 1916 l 1,48,-1
 176 1940 l 1,49,-1
 226 1949 l 1,50,-1
 309 1953 l 1,51,-1
 510 1951 l 1,52,-1
 1001 1953 l 1,53,-1
 1118 1939 l 1,54,-1
 1197 1915 l 1,55,-1
 1255 1891 l 1,56,-1
 1307 1856 l 1,57,-1
 1362 1810 l 1,58,-1
 1410 1757 l 1,59,-1
 1452 1696 l 1,60,-1
 1475 1628 l 1,61,-1
 1496 1563 l 1,62,-1
 1505 1511 l 1,63,-1
 1507 1416 l 1,64,-1
 1503 1365 l 1,65,-1
 1494 1311 l 1,66,-1
 1475 1248 l 1,67,-1
 1450 1189 l 1,68,-1
 1418 1137 l 1,69,-1
 1381 1092 l 1,70,-1
 1343 1054 l 1,71,-1
 1407 1015 l 1,72,-1
 1449 981 l 1,73,-1
 1489 942 l 1,74,-1
 1518 900 l 1,75,-1
 1542 854 l 1,76,-1
 1558 796 l 1,77,-1
 1567 741 l 1,78,-1
 1569 655 l 1,79,-1
 1566 572 l 1,80,-1
 1553 500 l 1,81,-1
 1540 442 l 1,82,-1
 1508 375 l 1,83,-1
 1472 316 l 1,84,-1
 1427 269 l 1,85,-1
 1383 230 l 1,86,-1
 1335 198 l 1,87,-1
 1283 168 l 1,88,-1
 1235 148 l 1,89,-1
 1185 131 l 1,90,-1
 1135 115 l 1,91,-1
 1076 101 l 1,92,-1
 1020 95 l 1,93,-1
 958 90 l 1,94,-1
 896 82 l 1,95,-1
 828 82 l 1,96,-1
 752 86 l 1,97,-1
 679 91 l 1,98,-1
 611 98 l 1,99,-1
 562 109 l 1,100,-1
 489 122 l 1,101,-1
 428 147 l 1,102,-1
 379 177 l 1,103,-1
 349 214 l 1,104,-1
 325 247 l 1,105,-1
 311 286 l 1,106,-1
 299 324 l 1,107,-1
 291 354 l 1,108,-1
 289 402 l 1,109,-1
 288 449 l 1,110,-1
 287 1061 l 1,111,-1
 287 1591 l 1,36,-1
EndSplineSet
EndChar
StartChar: f
Encoding: 102 102 21
Width: 1471
GlyphClass: 1
Flags: W
LayerCount: 2
Fore
SplineSet
284 1952 m 1,0,-1
 760 1952 l 1,1,-1
 1229 1953 l 1,2,-1
 1276 1946 l 1,3,-1
 1314 1929 l 1,4,-1
 1349 1900 l 1,5,-1
 1375 1866 l 1,6,-1
 1393 1825 l 1,7,-1
 1401 1776 l 1,8,-1
 1398 1739 l 1,9,-1
 1389 1702 l 1,10,-1
 1374 1672 l 1,11,-1
 1352 1643 l 1,12,-1
 1320 1620 l 1,13,-1
 1272 1604 l 1,14,-1
 1204 1593 l 1,15,-1
 1142 1588 l 1,16,-1
 673 1588 l 1,17,-1
 673 1220 l 1,18,-1
 1096 1220 l 1,19,-1
 1149 1214 l 1,20,-1
 1200 1205 l 1,21,-1
 1236 1188 l 1,22,-1
 1266 1158 l 1,23,-1
 1291 1122 l 1,24,-1
 1309 1075 l 1,25,-1
 1309 1037 l 1,26,-1
 1308 988 l 1,27,-1
 1297 935 l 1,28,-1
 1272 904 l 1,29,-1
 1238 877 l 1,30,-1
 1203 865 l 1,31,-1
 1163 857 l 1,32,-1
 670 858 l 1,33,-1
 670 511 l 1,34,-1
 670 236 l 1,35,-1
 666 210 l 1,36,-1
 650 171 l 1,37,-1
 628 135 l 1,38,-1
 604 109 l 1,39,-1
 567 92 l 1,40,-1
 527 85 l 1,41,-1
 476 82 l 1,42,-1
 431 81 l 1,43,-1
 401 93 l 1,44,-1
 372 109 l 1,45,-1
 339 131 l 1,46,-1
 308 167 l 1,47,-1
 297 208 l 1,48,-1
 291 327 l 1,49,-1
 291 575 l 1,50,-1
 291 846 l 1,51,-1
 250 857 l 1,52,-1
 202 878 l 1,53,-1
 165 906 l 1,54,-1
 157 915 l 1,55,-1
 149 925 l 1,56,-1
 141 934 l 1,57,-1
 133 944 l 1,58,-1
 112 979 l 1,59,-1
 105 1041 l 1,60,-1
 109 1091 l 1,61,-1
 132 1131 l 1,62,-1
 156 1166 l 1,63,-1
 190 1193 l 1,64,-1
 242 1214 l 1,65,-1
 294 1225 l 1,66,-1
 294 1588 l 1,67,-1
 250 1596 l 1,68,-1
 208 1610 l 1,69,-1
 165 1635 l 1,70,-1
 126 1661 l 1,71,-1
 103 1697 l 1,72,-1
 85 1748 l 1,73,-1
 81 1803 l 1,74,-1
 90 1848 l 1,75,-1
 116 1887 l 1,76,-1
 150 1914 l 1,77,-1
 194 1936 l 1,78,-1
 284 1952 l 1,0,-1
EndSplineSet
EndChar
StartChar: h
Encoding: 104 104 25
Width: 1641
GlyphClass: 1
Flags: W
LayerCount: 2
Fore
SplineSet
500 1950 m 1,0,-1
 548 1947 l 1,1,-1
 589 1937 l 1,2,-1
 621 1919 l 1,3,-1
 647 1899 l 1,4,-1
 671 1868 l 1,5,-1
 683 1822 l 1,6,-1
 684 1767 l 1,7,-1
 684 1719 l 1,8,-1
 683 1664 l 1,9,-1
 684 1609 l 1,10,-1
 684 1559 l 1,11,-1
 674 1217 l 1,12,-1
 1150 1218 l 1,13,-1
 1149 1239 l 1,14,-1
 1146 1320 l 1,15,-1
 1140 1369 l 1,16,-1
 1142 1430 l 1,17,-1
 1135 1495 l 1,18,-1
 1130 1551 l 1,19,-1
 1122 1655 l 1,20,-1
 1115 1712 l 1,21,-1
 1110 1758 l 1,22,-1
 1115 1810 l 1,23,-1
 1126 1842 l 1,24,-1
 1141 1869 l 1,25,-1
 1161 1894 l 1,26,-1
 1194 1923 l 1,27,-1
 1234 1941 l 1,28,-1
 1273 1948 l 1,29,-1
 1323 1953 l 1,30,-1
 1362 1947 l 1,31,-1
 1402 1934 l 1,32,-1
 1434 1913 l 1,33,-1
 1460 1887 l 1,34,-1
 1482 1855 l 1,35,-1
 1496 1817 l 1,36,-1
 1505 1776 l 1,37,-1
 1511 1736 l 1,38,-1
 1519 1687 l 1,39,-1
 1526 1621 l 1,40,-1
 1534 1533 l 1,41,-1
 1542 1453 l 1,42,-1
 1547 1367 l 1,43,-1
 1552 1282 l 1,44,-1
 1556 1189 l 1,45,-1
 1560 1106 l 1,46,-1
 1560 1041 l 1,47,-1
 1563 957 l 1,48,-1
 1562 863 l 1,49,-1
 1559 774 l 1,50,-1
 1556 687 l 1,51,-1
 1550 596 l 1,52,-1
 1549 524 l 1,53,-1
 1546 469 l 1,54,-1
 1542 416 l 1,55,-1
 1538 374 l 1,56,-1
 1535 319 l 1,57,-1
 1529 267 l 1,58,-1
 1516 228 l 1,59,-1
 1502 189 l 1,60,-1
 1473 159 l 1,61,-1
 1438 136 l 1,62,-1
 1403 119 l 1,63,-1
 1363 110 l 1,64,-1
 1328 106 l 1,65,-1
 1285 108 l 1,66,-1
 1245 120 l 1,67,-1
 1205 138 l 1,68,-1
 1175 159 l 1,69,-1
 1156 189 l 1,70,-1
 1149 231 l 1,71,-1
 1149 280 l 1,72,-1
 1154 332 l 1,73,-1
 1160 454 l 1,74,-1
 1166 608 l 1,75,-1
 1166 850 l 1,76,-1
 668 850 l 1,77,-1
 667 718 l 1,78,-1
 671 599 l 1,79,-1
 673 483 l 1,80,-1
 680 375 l 1,81,-1
 686 297 l 1,82,-1
 685 211 l 1,83,-1
 675 172 l 1,84,-1
 653 142 l 1,85,-1
 622 115 l 1,86,-1
 588 95 l 1,87,-1
 552 87 l 1,88,-1
 516 81 l 1,89,-1
 464 83 l 1,90,-1
 409 96 l 1,91,-1
 370 118 l 1,92,-1
 340 145 l 1,93,-1
 316 171 l 1,94,-1
 303 202 l 1,95,-1
 295 253 l 1,96,-1
 289 298 l 1,97,-1
 285 370 l 1,98,-1
 280 429 l 1,99,-1
 279 491 l 1,100,-1
 279 652 l 1,101,-1
 279 813 l 1,102,-1
 273 841 l 1,103,-1
 248 854 l 1,104,-1
 203 863 l 1,105,-1
 168 873 l 1,106,-1
 134 900 l 1,107,-1
 109 931 l 1,108,-1
 90 962 l 1,109,-1
 82 995 l 1,110,-1
 83 1028 l 1,111,-1
 87 1066 l 1,112,-1
 94 1104 l 1,113,-1
 109 1134 l 1,114,-1
 130 1158 l 1,115,-1
 152 1174 l 1,116,-1
 171 1187 l 1,117,-1
 202 1198 l 1,118,-1
 229 1203 l 1,119,-1
 255 1206 l 1,120,-1
 271 1215 l 1,121,-1
 277 1231 l 1,122,-1
 277 1278 l 1,123,-1
 277 1322 l 1,124,-1
 277 1367 l 1,125,-1
 281 1425 l 1,126,-1
 284 1476 l 1,127,-1
 289 1528 l 1,128,-1
 295 1601 l 1,129,-1
 306 1679 l 1,130,-1
 318 1752 l 1,131,-1
 333 1820 l 1,132,-1
 351 1862 l 1,133,-1
 377 1896 l 1,134,-1
 412 1922 l 1,135,-1
 457 1943 l 1,136,-1
 500 1950 l 1,0,-1
EndSplineSet
EndChar
StartChar: k
Encoding: 107 107 31
Width: 1345
GlyphClass: 1
Flags: W
LayerCount: 2
Fore
SplineSet
82 1747 m 1,0,-1
 87 1794 l 1,1,-1
 98 1831 l 1,2,-1
 116 1865 l 1,3,-1
 141 1899 l 1,4,-1
 175 1926 l 1,5,-1
 210 1943 l 1,6,-1
 238 1948 l 1,7,-1
 274 1954 l 1,8,-1
 348 1953 l 1,9,-1
 383 1946 l 1,10,-1
 413 1931 l 1,11,-1
 438 1914 l 1,12,-1
 462 1889 l 1,13,-1
 481 1851 l 1,14,-1
 493 1803 l 1,15,-1
 497 1768 l 1,16,-1
 497 1675 l 1,17,-1
 496 1584 l 1,18,-1
 497 1494 l 1,19,-1
 497 1416 l 1,20,-1
 533 1457 l 1,21,-1
 568 1499 l 1,22,-1
 612 1550 l 1,23,-1
 664 1607 l 1,24,-1
 717 1670 l 1,25,-1
 750 1714 l 1,26,-1
 794 1762 l 1,27,-1
 829 1807 l 1,28,-1
 880 1865 l 1,29,-1
 909 1893 l 1,30,-1
 944 1911 l 1,31,-1
 1000 1927 l 1,32,-1
 1055 1927 l 1,33,-1
 1098 1918 l 1,34,-1
 1138 1894 l 1,35,-1
 1169 1863 l 1,36,-1
 1193 1827 l 1,37,-1
 1206 1787 l 1,38,-1
 1211 1744 l 1,39,-1
 1203 1696 l 1,40,-1
 1192 1657 l 1,41,-1
 1172 1624 l 1,42,-1
 751 1129 l 1,43,-1
 1151 517 l 1,44,-1
 1180 474 l 1,45,-1
 1208 429 l 1,46,-1
 1236 379 l 1,47,-1
 1258 341 l 1,48,-1
 1272 302 l 1,49,-1
 1281 258 l 1,50,-1
 1280 220 l 1,51,-1
 1273 180 l 1,52,-1
 1257 145 l 1,53,-1
 1230 119 l 1,54,-1
 1197 97 l 1,55,-1
 1153 82 l 1,56,-1
 1054 81 l 1,57,-1
 1011 89 l 1,58,-1
 980 103 l 1,59,-1
 948 129 l 1,60,-1
 926 157 l 1,61,-1
 652 603 l 1,62,-1
 510 818 l 1,63,-1
 487 812 l 1,64,-1
 486 777 l 1,65,-1
 487 236 l 1,66,-1
 481 203 l 1,67,-1
 470 173 l 1,68,-1
 444 143 l 1,69,-1
 415 118 l 1,70,-1
 379 95 l 1,71,-1
 334 82 l 1,72,-1
 257 82 l 1,73,-1
 226 85 l 1,74,-1
 191 94 l 1,75,-1
 160 111 l 1,76,-1
 127 137 l 1,77,-1
 107 171 l 1,78,-1
 91 224 l 1,79,-1
 86 268 l 1,80,-1
 82 310 l 1,81,-1
 82 675 l 1,82,-1
 82 1075 l 1,83,-1
 82 1425 l 1,84,-1
 82 1747 l 1,0,-1
EndSplineSet
EndChar
StartChar: l
Encoding: 108 108 33
Width: 1171
GlyphClass: 1
Flags: W
LayerCount: 2
Fore
SplineSet
81 1793 m 1,0,-1
 85 1822 l 1,1,-1
 93 1847 l 1,2,-1
 104 1870 l 1,3,-1
 122 1894 l 1,4,-1
 139 1911 l 1,5,-1
 162 1926 l 1,6,-1
 193 1942 l 1,7,-1
 230 1951 l 1,8,-1
 284 1953 l 1,9,-1
 317 1950 l 1,10,-1
 346 1941 l 1,11,-1
 373 1928 l 1,12,-1
 397 1910 l 1,13,-1
 419 1887 l 1,14,-1
 435 1861 l 1,15,-1
 444 1832 l 1,16,-1
 451 1789 l 1,17,-1
 457 1102 l 1,18,-1
 471 516 l 1,19,-1
 475 497 l 1,20,-1
 483 476 l 1,21,-1
 497 462 l 1,22,-1
 516 450 l 1,23,-1
 545 444 l 1,24,-1
 597 442 l 1,25,-1
 632 450 l 1,26,-1
 672 465 l 1,27,-1
 716 485 l 1,28,-1
 753 501 l 1,29,-1
 795 522 l 1,30,-1
 821 533 l 1,31,-1
 850 544 l 1,32,-1
 874 554 l 1,33,-1
 911 561 l 1,34,-1
 960 564 l 1,35,-1
 998 559 l 1,36,-1
 1018 554 l 1,37,-1
 1039 542 l 1,38,-1
 1057 526 l 1,39,-1
 1076 503 l 1,40,-1
 1095 473 l 1,41,-1
 1107 449 l 1,42,-1
 1116 392 l 1,43,-1
 1116 365 l 1,44,-1
 1113 334 l 1,45,-1
 1107 306 l 1,46,-1
 1098 285 l 1,47,-1
 1085 267 l 1,48,-1
 1072 251 l 1,49,-1
 1058 239 l 1,50,-1
 1043 227 l 1,51,-1
 1025 214 l 1,52,-1
 1007 203 l 1,53,-1
 986 192 l 1,54,-1
 963 182 l 1,55,-1
 937 171 l 1,56,-1
 913 160 l 1,57,-1
 887 153 l 1,58,-1
 855 142 l 1,59,-1
 830 133 l 1,60,-1
 799 125 l 1,61,-1
 768 117 l 1,62,-1
 737 109 l 1,63,-1
 711 101 l 1,64,-1
 673 93 l 1,65,-1
 630 87 l 1,66,-1
 572 81 l 1,67,-1
 501 82 l 1,68,-1
 422 83 l 1,69,-1
 383 88 l 1,70,-1
 337 93 l 1,71,-1
 305 100 l 1,72,-1
 281 108 l 1,73,-1
 259 118 l 1,74,-1
 232 132 l 1,75,-1
 208 146 l 1,76,-1
 188 161 l 1,77,-1
 169 179 l 1,78,-1
 152 203 l 1,79,-1
 133 226 l 1,80,-1
 122 248 l 1,81,-1
 113 274 l 1,82,-1
 105 301 l 1,83,-1
 103 339 l 1,84,-1
 102 391 l 1,85,-1
 94 1088 l 1,86,-1
 81 1793 l 1,0,-1
EndSplineSet
EndChar
StartChar: n
Encoding: 110 110 37
Width: 1472
GlyphClass: 1
Flags: W
LayerCount: 2
Fore
SplineSet
125 1839 m 1,0,-1
 139 1865 l 1,1,-1
 161 1893 l 1,2,-1
 193 1920 l 1,3,-1
 245 1938 l 1,4,-1
 305 1940 l 1,5,-1
 351 1941 l 1,6,-1
 399 1919 l 1,7,-1
 434 1890 l 1,8,-1
 483 1833 l 1,9,-1
 517 1782 l 1,10,-1
 551 1726 l 1,11,-1
 586 1654 l 1,12,-1
 613 1596 l 1,13,-1
 665 1487 l 1,14,-1
 715 1393 l 1,15,-1
 820 1202 l 1,16,-1
 907 1043 l 1,17,-1
 1018 842 l 1,18,-1
 1010 1113 l 1,19,-1
 999 1522 l 1,20,-1
 995 1717 l 1,21,-1
 999 1811 l 1,22,-1
 1010 1864 l 1,23,-1
 1032 1897 l 1,24,-1
 1060 1925 l 1,25,-1
 1093 1946 l 1,26,-1
 1155 1953 l 1,27,-1
 1209 1953 l 1,28,-1
 1252 1946 l 1,29,-1
 1292 1926 l 1,30,-1
 1334 1893 l 1,31,-1
 1364 1850 l 1,32,-1
 1377 1795 l 1,33,-1
 1384 1695 l 1,34,-1
 1391 1584 l 1,35,-1
 1402 1365 l 1,36,-1
 1402 1030 l 1,37,-1
 1402 757 l 1,38,-1
 1394 638 l 1,39,-1
 1388 485 l 1,40,-1
 1384 387 l 1,41,-1
 1379 323 l 1,42,-1
 1372 286 l 1,43,-1
 1366 251 l 1,44,-1
 1355 217 l 1,45,-1
 1334 187 l 1,46,-1
 1310 157 l 1,47,-1
 1274 129 l 1,48,-1
 1245 111 l 1,49,-1
 1199 100 l 1,50,-1
 1160 98 l 1,51,-1
 1120 99 l 1,52,-1
 1084 111 l 1,53,-1
 1040 138 l 1,54,-1
 990 174 l 1,55,-1
 950 216 l 1,56,-1
 903 285 l 1,57,-1
 858 368 l 1,58,-1
 641 763 l 1,59,-1
 481 1033 l 1,60,-1
 471 896 l 1,61,-1
 466 715 l 1,62,-1
 469 654 l 1,63,-1
 472 571 l 1,64,-1
 477 508 l 1,65,-1
 479 435 l 1,66,-1
 480 367 l 1,67,-1
 483 313 l 1,68,-1
 479 245 l 1,69,-1
 474 195 l 1,70,-1
 460 164 l 1,71,-1
 431 136 l 1,72,-1
 402 109 l 1,73,-1
 372 93 l 1,74,-1
 341 81 l 1,75,-1
 267 86 l 1,76,-1
 227 98 l 1,77,-1
 186 116 l 1,78,-1
 152 147 l 1,79,-1
 128 200 l 1,80,-1
 117 271 l 1,81,-1
 107 378 l 1,82,-1
 92 616 l 1,83,-1
 84 939 l 1,84,-1
 82 1271 l 1,85,-1
 85 1558 l 1,86,-1
 96 1683 l 1,87,-1
 101 1733 l 1,88,-1
 107 1785 l 1,89,-1
 125 1839 l 1,0,-1
EndSplineSet
EndChar
StartChar: p
Encoding: 112 112 11
Width: 1564
GlyphClass: 1
Flags: W
LayerCount: 2
Fore
SplineSet
690 1571 m 1,0,-1
 690 1174 l 1,1,-1
 704 1155 l 1,2,-1
 745 1146 l 1,3,-1
 861 1146 l 1,4,-1
 916 1145 l 1,5,-1
 968 1145 l 1,6,-1
 1012 1155 l 1,7,-1
 1047 1175 l 1,8,-1
 1073 1199 l 1,9,-1
 1096 1228 l 1,10,-1
 1112 1264 l 1,11,-1
 1123 1310 l 1,12,-1
 1127 1364 l 1,13,-1
 1127 1420 l 1,14,-1
 1112 1467 l 1,15,-1
 1095 1507 l 1,16,-1
 1065 1544 l 1,17,-1
 1023 1570 l 1,18,-1
 980 1580 l 1,19,-1
 955 1586 l 1,20,-1
 733 1586 l 1,21,-1
 699 1586 l 1,22,-1
 692 1581 l 1,23,-1
 690 1571 l 1,0,-1
201 1947 m 1,24,-1
 263 1952 l 1,25,-1
 1052 1953 l 1,26,-1
 1082 1949 l 1,27,-1
 1111 1947 l 1,28,-1
 1151 1939 l 1,29,-1
 1177 1929 l 1,30,-1
 1207 1914 l 1,31,-1
 1233 1900 l 1,32,-1
 1258 1882 l 1,33,-1
 1286 1857 l 1,34,-1
 1312 1833 l 1,35,-1
 1332 1813 l 1,36,-1
 1355 1786 l 1,37,-1
 1377 1760 l 1,38,-1
 1400 1727 l 1,39,-1
 1421 1695 l 1,40,-1
 1437 1669 l 1,41,-1
 1450 1645 l 1,42,-1
 1460 1621 l 1,43,-1
 1466 1601 l 1,44,-1
 1471 1579 l 1,45,-1
 1477 1554 l 1,46,-1
 1483 1529 l 1,47,-1
 1485 1495 l 1,48,-1
 1489 1461 l 1,49,-1
 1490 1416 l 1,50,-1
 1490 1376 l 1,51,-1
 1490 1337 l 1,52,-1
 1489 1309 l 1,53,-1
 1484 1259 l 1,54,-1
 1480 1222 l 1,55,-1
 1474 1194 l 1,56,-1
 1466 1161 l 1,57,-1
 1460 1138 l 1,58,-1
 1450 1114 l 1,59,-1
 1438 1087 l 1,60,-1
 1425 1061 l 1,61,-1
 1411 1037 l 1,62,-1
 1400 1017 l 1,63,-1
 1386 997 l 1,64,-1
 1370 980 l 1,65,-1
 1359 964 l 1,66,-1
 1341 946 l 1,67,-1
 1320 927 l 1,68,-1
 1301 911 l 1,69,-1
 1279 896 l 1,70,-1
 1260 884 l 1,71,-1
 1239 872 l 1,72,-1
 1211 861 l 1,73,-1
 1182 851 l 1,74,-1
 1145 842 l 1,75,-1
 1110 834 l 1,76,-1
 1065 826 l 1,77,-1
 1013 822 l 1,78,-1
 723 822 l 1,79,-1
 705 811 l 1,80,-1
 697 797 l 1,81,-1
 697 766 l 1,82,-1
 696 242 l 1,83,-1
 695 210 l 1,84,-1
 692 186 l 1,85,-1
 689 166 l 1,86,-1
 678 145 l 1,87,-1
 660 123 l 1,88,-1
 643 109 l 1,89,-1
 624 96 l 1,90,-1
 604 88 l 1,91,-1
 571 82 l 1,92,-1
 519 82 l 1,93,-1
 492 81 l 1,94,-1
 460 84 l 1,95,-1
 431 92 l 1,96,-1
 407 101 l 1,97,-1
 386 115 l 1,98,-1
 369 132 l 1,99,-1
 355 149 l 1,100,-1
 339 179 l 1,101,-1
 330 216 l 1,102,-1
 327 267 l 1,103,-1
 327 1551 l 1,104,-1
 317 1579 l 1,105,-1
 302 1584 l 1,106,-1
 283 1585 l 1,107,-1
 234 1591 l 1,108,-1
 190 1605 l 1,109,-1
 161 1619 l 1,110,-1
 132 1643 l 1,111,-1
 104 1669 l 1,112,-1
 94 1696 l 1,113,-1
 88 1722 l 1,114,-1
 81 1752 l 1,115,-1
 83 1786 l 1,116,-1
 89 1828 l 1,117,-1
 100 1858 l 1,118,-1
 115 1888 l 1,119,-1
 136 1910 l 1,120,-1
 167 1931 l 1,121,-1
 201 1947 l 1,24,-1
EndSplineSet
EndChar
StartChar: q
Encoding: 113 113 41
Width: 1543
GlyphClass: 1
Flags: W
LayerCount: 2
Fore
SplineSet
587 1543 m 1,0,-1
 573 1524 l 1,1,-1
 559 1503 l 1,2,-1
 543 1478 l 1,3,-1
 531 1453 l 1,4,-1
 514 1419 l 1,5,-1
 501 1378 l 1,6,-1
 489 1338 l 1,7,-1
 480 1302 l 1,8,-1
 475 1261 l 1,9,-1
 470 1211 l 1,10,-1
 465 1174 l 1,11,-1
 460 1101 l 1,12,-1
 460 978 l 1,13,-1
 463 891 l 1,14,-1
 469 832 l 1,15,-1
 474 786 l 1,16,-1
 484 731 l 1,17,-1
 496 683 l 1,18,-1
 507 648 l 1,19,-1
 522 615 l 1,20,-1
 540 574 l 1,21,-1
 563 545 l 1,22,-1
 582 523 l 1,23,-1
 605 500 l 1,24,-1
 626 486 l 1,25,-1
 646 475 l 1,26,-1
 667 465 l 1,27,-1
 689 455 l 1,28,-1
 724 449 l 1,29,-1
 765 446 l 1,30,-1
 816 450 l 1,31,-1
 859 463 l 1,32,-1
 894 480 l 1,33,-1
 863 523 l 1,34,-1
 834 560 l 1,35,-1
 809 601 l 1,36,-1
 783 654 l 1,37,-1
 772 700 l 1,38,-1
 769 746 l 1,39,-1
 774 786 l 1,40,-1
 786 817 l 1,41,-1
 805 844 l 1,42,-1
 831 862 l 1,43,-1
 860 872 l 1,44,-1
 898 874 l 1,45,-1
 936 865 l 1,46,-1
 973 849 l 1,47,-1
 1022 801 l 1,48,-1
 1058 752 l 1,49,-1
 1064 813 l 1,50,-1
 1067 853 l 1,51,-1
 1070 896 l 1,52,-1
 1073 942 l 1,53,-1
 1076 1034 l 1,54,-1
 1072 1123 l 1,55,-1
 1067 1176 l 1,56,-1
 1060 1226 l 1,57,-1
 1054 1265 l 1,58,-1
 1047 1298 l 1,59,-1
 1039 1331 l 1,60,-1
 1030 1379 l 1,61,-1
 1016 1415 l 1,62,-1
 1000 1451 l 1,63,-1
 989 1481 l 1,64,-1
 973 1503 l 1,65,-1
 958 1527 l 1,66,-1
 941 1547 l 1,67,-1
 924 1566 l 1,68,-1
 906 1581 l 1,69,-1
 881 1595 l 1,70,-1
 858 1605 l 1,71,-1
 831 1611 l 1,72,-1
 798 1614 l 1,73,-1
 771 1616 l 1,74,-1
 743 1614 l 1,75,-1
 713 1611 l 1,76,-1
 683 1606 l 1,77,-1
 653 1595 l 1,78,-1
 630 1581 l 1,79,-1
 608 1562 l 1,80,-1
 587 1543 l 1,0,-1
376 1853 m 1,81,-1
 414 1877 l 1,82,-1
 464 1907 l 1,83,-1
 517 1929 l 1,84,-1
 582 1946 l 1,85,-1
 651 1954 l 1,86,-1
 718 1959 l 1,87,-1
 782 1962 l 1,88,-1
 842 1960 l 1,89,-1
 916 1955 l 1,90,-1
 978 1944 l 1,91,-1
 1030 1929 l 1,92,-1
 1086 1906 l 1,93,-1
 1127 1883 l 1,94,-1
 1165 1853 l 1,95,-1
 1204 1821 l 1,96,-1
 1236 1782 l 1,97,-1
 1272 1739 l 1,98,-1
 1299 1699 l 1,99,-1
 1335 1641 l 1,100,-1
 1363 1573 l 1,101,-1
 1383 1514 l 1,102,-1
 1401 1454 l 1,103,-1
 1420 1383 l 1,104,-1
 1435 1312 l 1,105,-1
 1452 1216 l 1,106,-1
 1464 1132 l 1,107,-1
 1470 1057 l 1,108,-1
 1469 958 l 1,109,-1
 1464 869 l 1,110,-1
 1457 795 l 1,111,-1
 1450 734 l 1,112,-1
 1437 669 l 1,113,-1
 1422 602 l 1,114,-1
 1399 534 l 1,115,-1
 1378 477 l 1,116,-1
 1335 395 l 1,117,-1
 1372 348 l 1,118,-1
 1400 310 l 1,119,-1
 1422 267 l 1,120,-1
 1429 234 l 1,121,-1
 1433 197 l 1,122,-1
 1427 161 l 1,123,-1
 1412 129 l 1,124,-1
 1378 99 l 1,125,-1
 1342 86 l 1,126,-1
 1286 81 l 1,127,-1
 1244 90 l 1,128,-1
 1204 98 l 1,129,-1
 1167 119 l 1,130,-1
 1137 143 l 1,131,-1
 1115 167 l 1,132,-1
 1071 146 l 1,133,-1
 1024 126 l 1,134,-1
 956 110 l 1,135,-1
 872 94 l 1,136,-1
 766 90 l 1,137,-1
 677 97 l 1,138,-1
 607 105 l 1,139,-1
 549 119 l 1,140,-1
 499 138 l 1,141,-1
 455 156 l 1,142,-1
 408 182 l 1,143,-1
 356 216 l 1,144,-1
 313 251 l 1,145,-1
 261 298 l 1,146,-1
 216 360 l 1,147,-1
 187 416 l 1,148,-1
 161 472 l 1,149,-1
 134 548 l 1,150,-1
 114 635 l 1,151,-1
 95 720 l 1,152,-1
 87 804 l 1,153,-1
 81 942 l 1,154,-1
 82 1139 l 1,155,-1
 92 1256 l 1,156,-1
 101 1331 l 1,157,-1
 111 1407 l 1,158,-1
 125 1477 l 1,159,-1
 147 1548 l 1,160,-1
 182 1621 l 1,161,-1
 202 1657 l 1,162,-1
 238 1709 l 1,163,-1
 270 1748 l 1,164,-1
 304 1783 l 1,165,-1
 336 1815 l 1,166,-1
 376 1853 l 1,81,-1
EndSplineSet
EndChar
StartChar: r
Encoding: 114 114 13
Width: 1585
GlyphClass: 1
Flags: W
LayerCount: 2
Fore
SplineSet
291 1953 m 1,0,-1
 1013 1950 l 1,1,-1
 1065 1947 l 1,2,-1
 1115 1936 l 1,3,-1
 1167 1919 l 1,4,-1
 1210 1891 l 1,5,-1
 1255 1865 l 1,6,-1
 1290 1840 l 1,7,-1
 1328 1811 l 1,8,-1
 1360 1779 l 1,9,-1
 1389 1745 l 1,10,-1
 1417 1701 l 1,11,-1
 1436 1654 l 1,12,-1
 1452 1619 l 1,13,-1
 1465 1589 l 1,14,-1
 1474 1549 l 1,15,-1
 1482 1515 l 1,16,-1
 1480 1403 l 1,17,-1
 1481 1349 l 1,18,-1
 1476 1296 l 1,19,-1
 1466 1242 l 1,20,-1
 1450 1184 l 1,21,-1
 1421 1119 l 1,22,-1
 1394 1067 l 1,23,-1
 1365 1026 l 1,24,-1
 1338 986 l 1,25,-1
 1306 958 l 1,26,-1
 1240 907 l 1,27,-1
 1236 891 l 1,28,-1
 1466 426 l 1,29,-1
 1493 363 l 1,30,-1
 1510 320 l 1,31,-1
 1510 231 l 1,32,-1
 1503 199 l 1,33,-1
 1486 160 l 1,34,-1
 1457 126 l 1,35,-1
 1425 103 l 1,36,-1
 1388 96 l 1,37,-1
 1349 90 l 1,38,-1
 1310 88 l 1,39,-1
 1267 93 l 1,40,-1
 1227 108 l 1,41,-1
 1192 128 l 1,42,-1
 1162 157 l 1,43,-1
 1150 180 l 1,44,-1
 828 847 l 1,45,-1
 716 847 l 1,46,-1
 702 830 l 1,47,-1
 701 809 l 1,48,-1
 700 426 l 1,49,-1
 702 364 l 1,50,-1
 701 318 l 1,51,-1
 700 267 l 1,52,-1
 693 210 l 1,53,-1
 684 173 l 1,54,-1
 663 137 l 1,55,-1
 638 112 l 1,56,-1
 604 93 l 1,57,-1
 563 82 l 1,58,-1
 514 81 l 1,59,-1
 458 84 l 1,60,-1
 414 98 l 1,61,-1
 383 118 l 1,62,-1
 358 143 l 1,63,-1
 342 166 l 1,64,-1
 328 199 l 1,65,-1
 321 228 l 1,66,-1
 321 771 l 1,67,-1
 322 1092 l 1,68,-1
 322 1585 l 1,69,-1
 263 1586 l 1,70,-1
 216 1592 l 1,71,-1
 173 1607 l 1,72,-1
 140 1628 l 1,73,-1
 114 1652 l 1,74,-1
 96 1680 l 1,75,-1
 82 1717 l 1,76,-1
 81 1807 l 1,77,-1
 90 1846 l 1,78,-1
 115 1891 l 1,79,-1
 141 1917 l 1,80,-1
 177 1935 l 1,81,-1
 220 1946 l 1,82,-1
 291 1953 l 1,0,-1
702 1564 m 1,83,-1
 702 1218 l 1,84,-1
 714 1200 l 1,85,-1
 750 1193 l 1,86,-1
 852 1193 l 1,87,-1
 899 1192 l 1,88,-1
 945 1192 l 1,89,-1
 983 1200 l 1,90,-1
 1014 1219 l 1,91,-1
 1040 1247 l 1,92,-1
 1052 1270 l 1,93,-1
 1071 1299 l 1,94,-1
 1079 1338 l 1,95,-1
 1085 1383 l 1,96,-1
 1085 1432 l 1,97,-1
 1071 1473 l 1,98,-1
 1057 1508 l 1,99,-1
 1030 1541 l 1,100,-1
 994 1563 l 1,101,-1
 956 1572 l 1,102,-1
 933 1577 l 1,103,-1
 740 1577 l 1,104,-1
 709 1577 l 1,105,-1
 702 1564 l 1,83,-1
EndSplineSet
EndChar
StartChar: s
Encoding: 115 115 43
Width: 1400
GlyphClass: 1
Flags: W
LayerCount: 2
Fore
SplineSet
703 1953 m 1,0,-1
 721 1952 l 1,1,-1
 739 1951 l 1,2,-1
 758 1950 l 1,3,-1
 777 1950 l 1,4,-1
 834 1944 l 1,5,-1
 887 1937 l 1,6,-1
 939 1923 l 1,7,-1
 986 1904 l 1,8,-1
 1031 1886 l 1,9,-1
 1063 1857 l 1,10,-1
 1116 1824 l 1,11,-1
 1147 1790 l 1,12,-1
 1171 1763 l 1,13,-1
 1200 1720 l 1,14,-1
 1226 1675 l 1,15,-1
 1244 1635 l 1,16,-1
 1253 1613 l 1,17,-1
 1262 1591 l 1,18,-1
 1269 1543 l 1,19,-1
 1269 1491 l 1,20,-1
 1263 1429 l 1,21,-1
 1245 1395 l 1,22,-1
 1218 1367 l 1,23,-1
 1188 1344 l 1,24,-1
 1155 1328 l 1,25,-1
 1120 1319 l 1,26,-1
 1079 1318 l 1,27,-1
 1035 1324 l 1,28,-1
 989 1336 l 1,29,-1
 959 1362 l 1,30,-1
 934 1397 l 1,31,-1
 919 1431 l 1,32,-1
 905 1472 l 1,33,-1
 897 1512 l 1,34,-1
 882 1546 l 1,35,-1
 855 1578 l 1,36,-1
 817 1601 l 1,37,-1
 773 1615 l 1,38,-1
 691 1618 l 1,39,-1
 629 1609 l 1,40,-1
 583 1583 l 1,41,-1
 550 1552 l 1,42,-1
 531 1523 l 1,43,-1
 522 1488 l 1,44,-1
 522 1441 l 1,45,-1
 534 1392 l 1,46,-1
 566 1354 l 1,47,-1
 618 1322 l 1,48,-1
 662 1299 l 1,49,-1
 721 1273 l 1,50,-1
 813 1239 l 1,51,-1
 901 1201 l 1,52,-1
 957 1170 l 1,53,-1
 1023 1142 l 1,54,-1
 1076 1108 l 1,55,-1
 1123 1079 l 1,56,-1
 1166 1045 l 1,57,-1
 1199 1017 l 1,58,-1
 1235 970 l 1,59,-1
 1262 932 l 1,60,-1
 1286 900 l 1,61,-1
 1300 859 l 1,62,-1
 1318 822 l 1,63,-1
 1322 787 l 1,64,-1
 1330 752 l 1,65,-1
 1334 705 l 1,66,-1
 1325 642 l 1,67,-1
 1318 580 l 1,68,-1
 1306 522 l 1,69,-1
 1292 468 l 1,70,-1
 1280 418 l 1,71,-1
 1256 372 l 1,72,-1
 1234 331 l 1,73,-1
 1209 293 l 1,74,-1
 1172 248 l 1,75,-1
 1142 216 l 1,76,-1
 1110 189 l 1,77,-1
 1076 167 l 1,78,-1
 1040 140 l 1,79,-1
 1000 126 l 1,80,-1
 959 111 l 1,81,-1
 914 98 l 1,82,-1
 868 91 l 1,83,-1
 815 84 l 1,84,-1
 726 81 l 1,85,-1
 634 83 l 1,86,-1
 586 92 l 1,87,-1
 538 101 l 1,88,-1
 493 116 l 1,89,-1
 444 133 l 1,90,-1
 398 159 l 1,91,-1
 353 183 l 1,92,-1
 315 216 l 1,93,-1
 276 245 l 1,94,-1
 240 276 l 1,95,-1
 213 310 l 1,96,-1
 192 347 l 1,97,-1
 162 383 l 1,98,-1
 134 441 l 1,99,-1
 113 493 l 1,100,-1
 99 544 l 1,101,-1
 86 590 l 1,102,-1
 82 674 l 1,103,-1
 86 760 l 1,104,-1
 98 796 l 1,105,-1
 122 826 l 1,106,-1
 152 861 l 1,107,-1
 188 880 l 1,108,-1
 221 892 l 1,109,-1
 263 898 l 1,110,-1
 312 897 l 1,111,-1
 350 889 l 1,112,-1
 389 876 l 1,113,-1
 420 859 l 1,114,-1
 446 836 l 1,115,-1
 464 802 l 1,116,-1
 480 768 l 1,117,-1
 492 730 l 1,118,-1
 497 662 l 1,119,-1
 514 597 l 1,120,-1
 533 544 l 1,121,-1
 567 505 l 1,122,-1
 605 474 l 1,123,-1
 650 452 l 1,124,-1
 704 447 l 1,125,-1
 754 446 l 1,126,-1
 796 459 l 1,127,-1
 841 477 l 1,128,-1
 874 503 l 1,129,-1
 900 532 l 1,130,-1
 923 568 l 1,131,-1
 929 596 l 1,132,-1
 933 629 l 1,133,-1
 935 670 l 1,134,-1
 930 714 l 1,135,-1
 909 752 l 1,136,-1
 878 783 l 1,137,-1
 839 808 l 1,138,-1
 793 834 l 1,139,-1
 730 863 l 1,140,-1
 638 906 l 1,141,-1
 561 943 l 1,142,-1
 478 980 l 1,143,-1
 404 1015 l 1,144,-1
 331 1057 l 1,145,-1
 279 1097 l 1,146,-1
 234 1140 l 1,147,-1
 198 1182 l 1,148,-1
 175 1228 l 1,149,-1
 158 1277 l 1,150,-1
 149 1328 l 1,151,-1
 145 1390 l 1,152,-1
 148 1438 l 1,153,-1
 150 1506 l 1,154,-1
 167 1563 l 1,155,-1
 179 1608 l 1,156,-1
 199 1657 l 1,157,-1
 223 1698 l 1,158,-1
 250 1727 l 1,159,-1
 280 1767 l 1,160,-1
 307 1795 l 1,161,-1
 341 1824 l 1,162,-1
 379 1854 l 1,163,-1
 417 1875 l 1,164,-1
 453 1892 l 1,165,-1
 490 1907 l 1,166,-1
 522 1920 l 1,167,-1
 573 1935 l 1,168,-1
 615 1943 l 1,169,-1
 657 1950 l 1,170,-1
 703 1953 l 1,0,-1
EndSplineSet
EndChar
StartChar: t
Encoding: 116 116 18
Width: 1494
GlyphClass: 1
Flags: W
LayerCount: 2
Fore
SplineSet
294 1951 m 1,0,-1
 783 1952 l 1,1,-1
 1246 1952 l 1,2,-1
 1272 1949 l 1,3,-1
 1298 1941 l 1,4,-1
 1324 1930 l 1,5,-1
 1347 1919 l 1,6,-1
 1373 1900 l 1,7,-1
 1391 1882 l 1,8,-1
 1404 1863 l 1,9,-1
 1413 1839 l 1,10,-1
 1419 1822 l 1,11,-1
 1422 1799 l 1,12,-1
 1423 1774 l 1,13,-1
 1421 1748 l 1,14,-1
 1415 1718 l 1,15,-1
 1407 1693 l 1,16,-1
 1397 1679 l 1,17,-1
 1381 1660 l 1,18,-1
 1360 1638 l 1,19,-1
 1339 1623 l 1,20,-1
 1320 1610 l 1,21,-1
 1295 1602 l 1,22,-1
 1268 1596 l 1,23,-1
 1243 1589 l 1,24,-1
 1095 1586 l 1,25,-1
 985 1586 l 1,26,-1
 985 1345 l 1,27,-1
 985 1017 l 1,28,-1
 984 687 l 1,29,-1
 984 408 l 1,30,-1
 985 217 l 1,31,-1
 982 194 l 1,32,-1
 978 178 l 1,33,-1
 963 149 l 1,34,-1
 947 135 l 1,35,-1
 933 117 l 1,36,-1
 917 107 l 1,37,-1
 899 99 l 1,38,-1
 877 90 l 1,39,-1
 852 85 l 1,40,-1
 827 81 l 1,41,-1
 746 82 l 1,42,-1
 719 88 l 1,43,-1
 694 94 l 1,44,-1
 674 105 l 1,45,-1
 647 120 l 1,46,-1
 625 138 l 1,47,-1
 605 161 l 1,48,-1
 594 187 l 1,49,-1
 588 213 l 1,50,-1
 584 244 l 1,51,-1
 584 282 l 1,52,-1
 584 1021 l 1,53,-1
 582 1582 l 1,54,-1
 287 1582 l 1,55,-1
 236 1590 l 1,56,-1
 200 1600 l 1,57,-1
 164 1614 l 1,58,-1
 128 1644 l 1,59,-1
 105 1680 l 1,60,-1
 90 1726 l 1,61,-1
 82 1770 l 1,62,-1
 94 1801 l 1,63,-1
 100 1839 l 1,64,-1
 122 1876 l 1,65,-1
 152 1909 l 1,66,-1
 191 1932 l 1,67,-1
 217 1943 l 1,68,-1
 242 1947 l 1,69,-1
 265 1953 l 1,70,-1
 294 1951 l 1,0,-1
EndSplineSet
EndChar
StartChar: w
Encoding: 119 119 49
Width: 2218
GlyphClass: 1
Flags: W
LayerCount: 2
Fore
SplineSet
83 1748 m 1,0,-1
 81 1806 l 1,1,-1
 91 1854 l 1,2,-1
 112 1887 l 1,3,-1
 147 1922 l 1,4,-1
 189 1941 l 1,5,-1
 234 1950 l 1,6,-1
 293 1952 l 1,7,-1
 343 1941 l 1,8,-1
 387 1919 l 1,9,-1
 415 1887 l 1,10,-1
 439 1843 l 1,11,-1
 463 1773 l 1,12,-1
 564 1403 l 1,13,-1
 691 969 l 1,14,-1
 965 1774 l 1,15,-1
 983 1818 l 1,16,-1
 1006 1862 l 1,17,-1
 1034 1906 l 1,18,-1
 1074 1934 l 1,19,-1
 1129 1944 l 1,20,-1
 1176 1931 l 1,21,-1
 1209 1908 l 1,22,-1
 1233 1861 l 1,23,-1
 1254 1806 l 1,24,-1
 1488 1019 l 1,25,-1
 1713 1745 l 1,26,-1
 1733 1792 l 1,27,-1
 1754 1843 l 1,28,-1
 1779 1880 l 1,29,-1
 1814 1913 l 1,30,-1
 1854 1938 l 1,31,-1
 1903 1947 l 1,32,-1
 1967 1953 l 1,33,-1
 2026 1941 l 1,34,-1
 2067 1912 l 1,35,-1
 2094 1873 l 1,36,-1
 2112 1816 l 1,37,-1
 2113 1740 l 1,38,-1
 2097 1675 l 1,39,-1
 1705 337 l 1,40,-1
 1688 278 l 1,41,-1
 1664 213 l 1,42,-1
 1644 168 l 1,43,-1
 1618 131 l 1,44,-1
 1585 104 l 1,45,-1
 1546 91 l 1,46,-1
 1485 84 l 1,47,-1
 1417 90 l 1,48,-1
 1371 114 l 1,49,-1
 1331 145 l 1,50,-1
 1305 191 l 1,51,-1
 1277 261 l 1,52,-1
 1192 578 l 1,53,-1
 1078 978 l 1,54,-1
 873 286 l 1,55,-1
 856 241 l 1,56,-1
 839 194 l 1,57,-1
 818 157 l 1,58,-1
 795 127 l 1,59,-1
 768 106 l 1,60,-1
 732 93 l 1,61,-1
 684 83 l 1,62,-1
 641 81 l 1,63,-1
 593 89 l 1,64,-1
 556 108 l 1,65,-1
 511 144 l 1,66,-1
 475 194 l 1,67,-1
 446 279 l 1,68,-1
 317 764 l 1,69,-1
 96 1674 l 1,70,-1
 83 1748 l 1,0,-1
EndSplineSet
EndChar
StartChar: y
Encoding: 121 121 52
Width: 1407
GlyphClass: 1
Flags: W
LayerCount: 2
Fore
SplineSet
98 1691 m 1,0,-1
 88 1741 l 1,1,-1
 81 1787 l 1,2,-1
 86 1839 l 1,3,-1
 97 1865 l 1,4,-1
 116 1892 l 1,5,-1
 144 1911 l 1,6,-1
 168 1925 l 1,7,-1
 219 1937 l 1,8,-1
 275 1936 l 1,9,-1
 323 1930 l 1,10,-1
 365 1908 l 1,11,-1
 403 1874 l 1,12,-1
 437 1819 l 1,13,-1
 464 1765 l 1,14,-1
 688 1303 l 1,15,-1
 976 1847 l 1,16,-1
 998 1881 l 1,17,-1
 1019 1911 l 1,18,-1
 1045 1928 l 1,19,-1
 1072 1940 l 1,20,-1
 1086 1943 l 1,21,-1
 1100 1947 l 1,22,-1
 1115 1950 l 1,23,-1
 1129 1951 l 1,24,-1
 1191 1953 l 1,25,-1
 1244 1944 l 1,26,-1
 1283 1929 l 1,27,-1
 1308 1904 l 1,28,-1
 1328 1872 l 1,29,-1
 1340 1831 l 1,30,-1
 1337 1798 l 1,31,-1
 1330 1765 l 1,32,-1
 1322 1733 l 1,33,-1
 1304 1700 l 1,34,-1
 895 837 l 1,35,-1
 895 683 l 1,36,-1
 895 231 l 1,37,-1
 884 194 l 1,38,-1
 868 167 l 1,39,-1
 848 135 l 1,40,-1
 816 111 l 1,41,-1
 786 94 l 1,42,-1
 746 85 l 1,43,-1
 714 81 l 1,44,-1
 670 83 l 1,45,-1
 638 89 l 1,46,-1
 604 101 l 1,47,-1
 567 131 l 1,48,-1
 540 166 l 1,49,-1
 521 205 l 1,50,-1
 511 247 l 1,51,-1
 507 284 l 1,52,-1
 507 839 l 1,53,-1
 98 1691 l 1,0,-1
EndSplineSet
EndChar
StartChar: z
Encoding: 122 122 54
Width: 1475
GlyphClass: 1
Flags: W
LayerCount: 2
Fore
SplineSet
247 1951 m 1,0,-1
 296 1952 l 1,1,-1
 715 1953 l 1,2,-1
 1133 1953 l 1,3,-1
 1202 1952 l 1,4,-1
 1250 1947 l 1,5,-1
 1286 1936 l 1,6,-1
 1319 1909 l 1,7,-1
 1345 1878 l 1,8,-1
 1364 1847 l 1,9,-1
 1375 1799 l 1,10,-1
 1377 1751 l 1,11,-1
 1369 1698 l 1,12,-1
 1356 1651 l 1,13,-1
 1324 1591 l 1,14,-1
 1299 1543 l 1,15,-1
 662 583 l 1,16,-1
 632 529 l 1,17,-1
 618 498 l 1,18,-1
 627 479 l 1,19,-1
 659 475 l 1,20,-1
 1158 475 l 1,21,-1
 1230 474 l 1,22,-1
 1286 466 l 1,23,-1
 1328 451 l 1,24,-1
 1360 420 l 1,25,-1
 1384 378 l 1,26,-1
 1399 337 l 1,27,-1
 1405 284 l 1,28,-1
 1401 238 l 1,29,-1
 1390 200 l 1,30,-1
 1378 169 l 1,31,-1
 1355 134 l 1,32,-1
 1323 112 l 1,33,-1
 1284 96 l 1,34,-1
 1238 88 l 1,35,-1
 1197 85 l 1,36,-1
 330 81 l 1,37,-1
 276 86 l 1,38,-1
 226 93 l 1,39,-1
 190 102 l 1,40,-1
 159 119 l 1,41,-1
 126 139 l 1,42,-1
 101 178 l 1,43,-1
 91 211 l 1,44,-1
 89 225 l 1,45,-1
 87 239 l 1,46,-1
 85 254 l 1,47,-1
 83 268 l 1,48,-1
 81 307 l 1,49,-1
 89 346 l 1,50,-1
 98 380 l 1,51,-1
 108 420 l 1,52,-1
 131 468 l 1,53,-1
 158 507 l 1,54,-1
 875 1591 l 1,55,-1
 607 1591 l 1,56,-1
 344 1591 l 1,57,-1
 311 1591 l 1,58,-1
 276 1594 l 1,59,-1
 234 1600 l 1,60,-1
 195 1609 l 1,61,-1
 160 1628 l 1,62,-1
 139 1652 l 1,63,-1
 123 1681 l 1,64,-1
 112 1726 l 1,65,-1
 110 1787 l 1,66,-1
 116 1843 l 1,67,-1
 132 1879 l 1,68,-1
 157 1914 l 1,69,-1
 199 1938 l 1,70,-1
 247 1951 l 1,0,-1
EndSplineSet
EndChar
StartChar: Adieresis
Encoding: 196 196 57
Width: 1635
GlyphClass: 1
Flags: W
LayerCount: 2
Fore
SplineSet
1082 756 m 1,0,1
 1070 803 1070 803 878 1497 c 1,2,-1
 836 1397 l 1,3,-1
 803 1303 l 1,4,5
 774 1208 774 1208 743 1113 c 1,6,7
 680 859 680 859 669 794 c 1,8,-1
 672 769 l 1,9,-1
 694 757 l 1,10,11
 750 756 750 756 1082 756 c 1,0,1
374 81 m 1,12,-1
 321 82 l 1,13,-1
 272 89 l 1,14,-1
 237 111 l 1,15,-1
 204 151 l 1,16,-1
 191 197 l 1,17,-1
 188 268 l 1,18,19
 202 346 202 346 214 424 c 1,20,-1
 179 430 l 1,21,-1
 142 446 l 1,22,-1
 109 469 l 1,23,-1
 88 499 l 1,24,25
 83 545 83 545 82 592 c 1,26,-1
 92 636 l 1,27,-1
 110 677 l 1,28,-1
 141 714 l 1,29,-1
 183 736 l 1,30,-1
 222 746 l 1,31,-1
 291 751 l 1,32,-1
 452 1308 l 1,33,-1
 578 1667 l 1,34,35
 603 1714 603 1714 625 1762 c 1,36,-1
 655 1813 l 1,37,-1
 701 1865 l 1,38,-1
 739 1899 l 1,39,40
 787 1923 787 1923 836 1942 c 1,41,-1
 896 1953 l 1,42,-1
 959 1942 l 1,43,-1
 1014 1925 l 1,44,-1
 1058 1899 l 1,45,-1
 1102 1862 l 1,46,-1
 1132 1819 l 1,47,48
 1157 1765 1157 1765 1185 1713 c 1,49,50
 1213 1632 1213 1632 1246 1553 c 1,51,52
 1263 1497 1263 1497 1278 1440 c 1,53,-1
 1304 1365 l 1,54,55
 1389 1073 1389 1073 1420 980 c 1,56,57
 1448 872 1448 872 1472 764 c 0,58,59
 1491 675 1491 675 1512 587 c 1,60,-1
 1525 511 l 2,61,62
 1539 449 1539 449 1549 387 c 1,63,-1
 1558 285 l 1,64,-1
 1555 215 l 1,65,-1
 1537 167 l 1,66,-1
 1508 133 l 1,67,-1
 1476 113 l 1,68,-1
 1438 99 l 1,69,-1
 1402 91 l 1,70,-1
 1319 91 l 1,71,-1
 1268 105 l 1,72,73
 1239 125 1239 125 1210 157 c 1,74,-1
 1186 210 l 1,75,76
 1171 271 1171 271 1158 332 c 2,77,-1
 1142 432 l 1,78,-1
 615 431 l 1,79,-1
 609 382 l 1,80,-1
 593 326 l 2,81,82
 580 267 580 267 565 208 c 1,83,-1
 548 168 l 1,84,-1
 521 133 l 1,85,-1
 480 100 l 1,86,-1
 429 88 l 1,87,-1
 374 81 l 1,12,-1
746 2015 m 0,88,89
 691 2015 691 2015 652.5 2063 c 128,-1,90
 614 2111 614 2111 614 2178 c 0,91,92
 614 2246 614 2246 658 2295 c 1,93,94
 691 2344 691 2344 691 2394 c 0,95,96
 691 2433 691 2433 673 2497 c 1,97,98
 811 2365 811 2365 844 2308 c 128,-1,99
 877 2251 877 2251 877 2187 c 0,100,101
 877 2111 877 2111 838.5 2063 c 128,-1,102
 800 2015 800 2015 746 2015 c 0,88,89
1109 2010 m 0,103,104
 1054 2010 1054 2010 1015.5 2058 c 128,-1,105
 977 2106 977 2106 977 2173 c 0,106,107
 977 2241 977 2241 1021 2290 c 1,108,109
 1054 2339 1054 2339 1054 2389 c 0,110,111
 1054 2428 1054 2428 1036 2492 c 1,112,113
 1174 2360 1174 2360 1207 2303 c 128,-1,114
 1240 2246 1240 2246 1240 2182 c 0,115,116
 1240 2106 1240 2106 1201.5 2058 c 128,-1,117
 1163 2010 1163 2010 1109 2010 c 0,103,104
EndSplineSet
Validated: 1
EndChar
StartChar: Odieresis
Encoding: 214 214 58
Width: 1543
GlyphClass: 1
Flags: W
LayerCount: 2
Fore
SplineSet
587 1534 m 1,0,-1
 573 1515 l 1,1,-1
 559 1494 l 1,2,-1
 543 1469 l 1,3,-1
 531 1444 l 1,4,-1
 514 1410 l 1,5,-1
 501 1369 l 1,6,-1
 489 1329 l 1,7,-1
 480 1293 l 1,8,-1
 475 1252 l 1,9,-1
 470 1202 l 1,10,-1
 465 1165 l 1,11,-1
 460 1092 l 1,12,-1
 460 969 l 1,13,-1
 463 882 l 1,14,-1
 469 823 l 1,15,-1
 474 777 l 1,16,-1
 484 722 l 1,17,-1
 496 674 l 1,18,-1
 507 639 l 1,19,-1
 522 606 l 1,20,-1
 540 565 l 1,21,-1
 563 536 l 1,22,-1
 582 514 l 1,23,-1
 605 491 l 1,24,-1
 626 477 l 1,25,-1
 646 466 l 1,26,-1
 667 456 l 1,27,-1
 689 446 l 1,28,-1
 724 440 l 1,29,-1
 765 437 l 1,30,-1
 816 441 l 1,31,-1
 859 454 l 1,32,-1
 895 470 l 1,33,-1
 919 486 l 1,34,-1
 939 501 l 1,35,-1
 957 522 l 1,36,-1
 970 540 l 1,37,-1
 983 561 l 1,38,-1
 997 581 l 1,39,-1
 1010 607 l 1,40,-1
 1024 641 l 1,41,-1
 1035 677 l 1,42,-1
 1048 725 l 1,43,-1
 1056 767 l 1,44,-1
 1064 804 l 1,45,-1
 1067 844 l 1,46,-1
 1070 887 l 1,47,-1
 1073 933 l 1,48,-1
 1076 1025 l 1,49,-1
 1072 1114 l 1,50,-1
 1067 1167 l 1,51,-1
 1060 1217 l 1,52,-1
 1054 1256 l 1,53,-1
 1047 1289 l 1,54,-1
 1039 1322 l 1,55,-1
 1030 1370 l 1,56,-1
 1016 1406 l 1,57,-1
 1000 1442 l 1,58,-1
 989 1472 l 1,59,-1
 973 1494 l 1,60,-1
 958 1518 l 1,61,-1
 941 1538 l 1,62,-1
 924 1557 l 1,63,-1
 906 1572 l 1,64,-1
 881 1586 l 1,65,-1
 858 1596 l 1,66,-1
 831 1602 l 1,67,-1
 798 1605 l 1,68,-1
 771 1607 l 1,69,-1
 743 1605 l 1,70,-1
 713 1602 l 1,71,-1
 683 1597 l 1,72,-1
 653 1586 l 1,73,-1
 630 1573 l 1,74,-1
 608 1553 l 1,75,-1
 587 1534 l 1,0,-1
376 1844 m 1,76,-1
 414 1868 l 1,77,-1
 464 1898 l 1,78,-1
 517 1920 l 1,79,-1
 582 1937 l 1,80,-1
 651 1945 l 1,81,-1
 718 1950 l 1,82,-1
 782 1953 l 1,83,-1
 842 1951 l 1,84,-1
 916 1946 l 1,85,-1
 978 1935 l 1,86,-1
 1030 1920 l 1,87,-1
 1086 1898 l 1,88,-1
 1127 1874 l 1,89,-1
 1165 1844 l 1,90,-1
 1204 1812 l 1,91,-1
 1236 1773 l 1,92,-1
 1272 1730 l 1,93,-1
 1299 1690 l 1,94,-1
 1335 1632 l 1,95,-1
 1363 1564 l 1,96,-1
 1383 1505 l 1,97,-1
 1401 1445 l 1,98,-1
 1420 1374 l 1,99,-1
 1435 1303 l 1,100,-1
 1452 1207 l 1,101,-1
 1464 1123 l 1,102,-1
 1470 1048 l 1,103,-1
 1469 949 l 1,104,-1
 1464 860 l 1,105,-1
 1457 786 l 1,106,-1
 1450 725 l 1,107,-1
 1437 661 l 1,108,-1
 1422 593 l 1,109,-1
 1399 525 l 1,110,-1
 1378 468 l 1,111,-1
 1352 409 l 1,112,-1
 1322 356 l 1,113,-1
 1292 313 l 1,114,-1
 1259 276 l 1,115,-1
 1230 247 l 1,116,-1
 1200 219 l 1,117,-1
 1159 186 l 1,118,-1
 1115 158 l 1,119,-1
 1071 137 l 1,120,-1
 1024 117 l 1,121,-1
 956 101 l 1,122,-1
 872 85 l 1,123,-1
 766 81 l 1,124,-1
 677 88 l 1,125,-1
 607 96 l 1,126,-1
 549 110 l 1,127,-1
 499 129 l 1,128,-1
 455 147 l 1,129,-1
 408 173 l 1,130,-1
 356 207 l 1,131,-1
 313 242 l 1,132,-1
 261 289 l 1,133,-1
 216 351 l 1,134,-1
 187 407 l 1,135,-1
 161 463 l 1,136,-1
 134 539 l 1,137,-1
 114 626 l 1,138,-1
 95 711 l 1,139,-1
 87 795 l 1,140,-1
 81 933 l 1,141,-1
 82 1130 l 1,142,-1
 92 1247 l 1,143,-1
 101 1323 l 1,144,-1
 111 1398 l 1,145,-1
 125 1468 l 1,146,-1
 147 1539 l 1,147,-1
 182 1612 l 1,148,-1
 202 1648 l 1,149,-1
 238 1700 l 1,150,-1
 270 1739 l 1,151,-1
 304 1774 l 1,152,-1
 336 1806 l 1,153,-1
 376 1844 l 1,76,-1
512 2015 m 0,154,155
 457 2015 457 2015 418.5 2063 c 128,-1,156
 380 2111 380 2111 380 2178 c 0,157,158
 380 2246 380 2246 424 2295 c 1,159,160
 457 2344 457 2344 457 2394 c 0,161,162
 457 2433 457 2433 439 2497 c 1,163,164
 577 2365 577 2365 610 2308 c 128,-1,165
 643 2251 643 2251 643 2187 c 0,166,167
 643 2111 643 2111 604.5 2063 c 128,-1,168
 566 2015 566 2015 512 2015 c 0,154,155
875 2010 m 0,169,170
 820 2010 820 2010 781.5 2058 c 128,-1,171
 743 2106 743 2106 743 2173 c 0,172,173
 743 2241 743 2241 787 2290 c 1,174,175
 820 2339 820 2339 820 2389 c 0,176,177
 820 2428 820 2428 802 2492 c 1,178,179
 940 2360 940 2360 973 2303 c 128,-1,180
 1006 2246 1006 2246 1006 2182 c 0,181,182
 1006 2106 1006 2106 967.5 2058 c 128,-1,183
 929 2010 929 2010 875 2010 c 0,169,170
EndSplineSet
Validated: 1
EndChar
